<svg width="144" height="53" viewBox="0 0 144 53" fill="none" xmlns="http://www.w3.org/2000/svg">
<path d="M143.088 25.084C142.86 24.971 142.632 24.858 142.518 24.858C142.29 24.632 142.062 24.406 141.948 24.2931C141.834 24.1801 141.834 23.9541 141.834 23.7281V18.4177C141.834 15.3671 141.15 13.1074 139.896 11.7515C138.755 10.5087 136.931 9.83076 134.423 9.71777H133.625C131.801 9.71777 130.432 9.94375 129.292 10.5087C128.152 10.9606 127.696 11.6385 127.696 12.3165C127.696 12.5424 127.81 12.8814 128.038 12.9944C128.266 13.2204 128.494 13.2204 128.836 13.2204C129.064 13.2204 129.748 12.9944 130.774 12.4295C131.687 11.8645 132.599 11.6385 133.511 11.6385H134.537C135.563 11.7515 136.475 12.0905 137.159 12.6554C138.071 13.3333 138.641 14.3502 138.755 15.5931H137.957C136.703 15.5931 135.563 15.7061 134.537 15.8191C132.599 16.045 130.888 16.61 129.634 17.4009C127.696 18.5307 126.784 20.2255 126.784 22.2593C126.784 23.8411 127.354 25.084 128.38 25.9879C129.406 26.8917 130.774 27.3437 132.599 27.3437C133.283 27.3437 133.967 27.3437 134.651 27.1177C135.335 27.0047 136.019 26.7788 136.589 26.4398C137.729 25.8749 138.641 25.084 139.44 23.9541V25.7619C139.44 26.2138 139.554 26.5528 139.668 26.6658C139.782 26.8917 140.124 26.8917 140.58 26.8917C142.062 26.8917 143.088 26.8917 143.43 26.6658C143.772 26.5528 144 26.3268 144 25.9879C143.886 25.5359 143.658 25.3099 143.088 25.084ZM139.098 19.9996C139.098 21.1294 138.869 21.9203 138.527 22.5983C138.185 23.1632 137.615 23.8411 136.703 24.2931C136.247 24.519 135.791 24.745 135.221 24.858C134.993 24.971 134.765 24.971 134.537 24.971C134.195 24.971 133.853 25.084 133.511 25.084C132.485 25.084 131.573 24.858 131.002 24.1801C130.318 23.6151 129.976 22.8242 129.976 21.8073C129.976 20.2255 130.774 19.0957 132.257 18.1918C132.941 17.8528 133.625 17.5139 134.537 17.2879C135.677 17.0619 137.045 16.8359 138.641 16.8359H139.098V19.9996Z" fill="white"/>
<path d="M120.056 14.0121C120.056 13.5602 120.056 13.3342 119.942 13.1083C119.828 12.8823 119.714 12.7693 119.372 12.5433C119.258 12.5433 119.144 12.4303 118.916 12.3173C118.46 12.0914 118.346 11.8654 118.346 11.6394C118.346 11.4134 118.346 11.3005 118.574 11.1875C118.688 11.0745 118.916 10.8485 119.258 10.7355L119.486 10.6225C120.855 9.83164 121.881 9.49268 122.337 9.49268C122.565 9.49268 122.793 9.60566 122.907 9.83164C123.021 10.0576 123.021 10.5096 123.021 11.4134V23.729C123.021 24.068 123.021 24.2939 123.135 24.5199C123.249 24.7459 123.363 24.8589 123.477 24.8589C123.591 24.9719 123.819 24.9719 124.047 25.0848C124.617 25.3108 124.959 25.6498 124.959 25.9887C124.959 26.2147 124.845 26.4407 124.617 26.5537C124.389 26.6667 124.047 26.6667 123.477 26.6667H119.714C119.144 26.6667 118.916 26.6667 118.688 26.5537C118.46 26.4407 118.46 26.3277 118.46 26.1017C118.46 25.8757 118.46 25.7628 118.574 25.6498C118.688 25.5368 118.802 25.4238 119.144 25.3108C119.258 25.3108 119.372 25.1978 119.486 25.0848C119.942 24.8589 120.17 24.5199 120.17 23.842L120.056 14.0121Z" fill="white"/>
<path d="M119.03 4.4112C119.03 3.73328 119.258 3.28133 119.6 2.94237C119.942 2.60341 120.512 2.37744 121.082 2.37744C121.652 2.37744 122.222 2.60341 122.564 2.94237C122.906 3.28133 123.134 3.73328 123.134 4.4112C123.134 4.97613 122.906 5.54107 122.564 5.88003C122.222 6.21899 121.652 6.44496 121.082 6.44496C120.398 6.44496 119.942 6.21899 119.6 5.88003C119.258 5.54107 119.03 5.08912 119.03 4.4112Z" fill="white"/>
<path d="M115.616 25.084C115.388 24.971 115.274 24.858 115.046 24.858C114.818 24.632 114.59 24.406 114.476 24.2931C114.476 24.1801 114.362 23.9541 114.362 23.7281V18.4177C114.362 15.3671 113.678 13.1074 112.424 11.7515C111.284 10.5087 109.459 9.83076 106.951 9.71777H106.153C104.329 9.71777 102.96 9.94375 101.82 10.5087C100.68 10.9606 100.224 11.6385 100.224 12.3165C100.224 12.5424 100.338 12.8814 100.566 12.9944C100.794 13.2204 101.022 13.2204 101.364 13.2204C101.592 13.2204 102.276 12.9944 103.189 12.4295C104.215 11.8645 105.127 11.6385 105.925 11.6385H106.951C107.977 11.7515 108.889 12.0905 109.573 12.6554C110.485 13.3333 111.056 14.3502 111.17 15.5931H110.371C109.117 15.5931 107.977 15.7061 106.951 15.8191C105.013 16.045 103.417 16.61 102.048 17.4009C100.11 18.5307 99.198 20.2255 99.198 22.2593C99.198 23.8411 99.7681 25.084 100.794 25.9879C101.82 26.8917 103.189 27.3437 105.013 27.3437C105.697 27.3437 106.381 27.3437 106.951 27.1177C107.635 27.0047 108.319 26.7788 108.889 26.4398C110.029 25.8749 110.941 25.084 111.74 23.9541V25.7619C111.74 26.2138 111.854 26.5528 111.968 26.6658C112.082 26.8917 112.424 26.8917 112.88 26.8917C114.362 26.8917 115.388 26.8917 115.73 26.6658C116.072 26.5528 116.3 26.3268 116.3 25.9879C116.414 25.5359 116.186 25.3099 115.616 25.084ZM111.626 19.9996C111.626 21.1294 111.512 21.9203 111.17 22.5983C110.827 23.1632 110.257 23.8411 109.345 24.2931C108.889 24.519 108.433 24.745 107.863 24.858C107.635 24.971 107.407 24.971 107.179 24.971C106.837 24.971 106.495 25.084 106.153 25.084C105.127 25.084 104.215 24.858 103.645 24.1801C102.96 23.6151 102.618 22.8242 102.618 21.8073C102.618 20.2255 103.417 19.0957 104.899 18.1918C105.583 17.8528 106.267 17.5139 107.179 17.2879C108.319 17.0619 109.687 16.8359 111.284 16.8359H111.626V19.9996Z" fill="white"/>
<path d="M97.5961 10.1706C97.254 9.94462 96.798 9.94462 96.2279 9.94462H94.6317H93.6056C93.1495 9.94462 92.4654 9.83164 91.4393 9.71865C90.4132 9.60566 89.6151 9.49268 88.931 9.49268C86.6507 9.49268 84.7124 10.2836 83.3443 11.7524C81.8621 13.2212 81.178 15.255 81.178 17.6277C81.178 20.0004 81.8621 22.0342 83.3443 23.503C84.7124 24.9718 86.5367 25.7628 88.817 25.7628H89.045C89.273 25.7628 89.6151 25.7628 89.9571 25.6498C90.4132 25.5368 90.9832 25.4238 91.7813 25.3108C92.8075 25.7628 93.6056 26.2147 94.0616 26.6667C94.5177 27.1186 94.7457 27.6835 94.7457 28.3615C94.7457 29.2653 94.1756 30.0562 93.1495 30.5082C92.1234 30.9601 90.7552 31.2991 89.045 31.2991H88.817C87.2208 31.2991 86.0806 31.1861 85.1685 30.8472C84.3704 30.6212 83.9143 30.1692 83.9143 29.6043C83.9143 29.6043 83.9143 29.4913 84.0283 29.2653C84.0283 29.0394 84.1424 28.9264 84.1424 28.8134C84.1424 28.5874 84.1424 28.4744 84.0283 28.3615C83.9143 28.2485 83.8003 28.1355 83.5723 28.1355C83.1162 28.1355 82.6602 28.3615 82.2041 28.8134C81.748 29.2653 81.634 29.7173 81.634 30.3952C81.634 31.4121 82.3181 32.203 83.5723 32.7679C84.8264 33.3329 86.6507 33.5588 88.931 33.5588H89.159C91.7813 33.5588 93.8336 32.9939 95.3158 32.09C96.912 31.1861 97.7101 29.8303 97.7101 28.2485C97.7101 27.3446 97.368 26.4407 96.798 25.7628C96.1139 25.0848 95.2018 24.5199 93.9476 24.068C94.9737 23.277 95.7718 22.2602 96.2279 21.1303C96.798 20.0004 97.026 18.7576 97.026 17.4017C97.026 16.2719 96.798 15.255 96.4559 14.3511C96.1139 13.3342 95.5438 12.5433 94.8597 11.8654H95.7718H95.9999C96.912 11.8654 97.4821 11.7524 97.8241 11.6394C98.1661 11.4134 98.3942 11.1875 98.3942 10.8485C98.0521 10.6225 97.9381 10.3966 97.5961 10.1706ZM92.4654 22.3732C91.6673 23.503 90.4132 24.068 88.931 24.068C87.4488 24.068 86.1946 23.503 85.3965 22.3732C84.5984 21.2433 84.1424 19.6615 84.1424 17.6277C84.1424 15.7069 84.5984 14.1251 85.3965 12.9953C86.1946 11.8654 87.4488 11.4134 88.931 11.4134C90.4132 11.4134 91.6673 11.9784 92.4654 13.1082C93.2635 14.2381 93.7196 15.7069 93.7196 17.6277C93.7196 19.6615 93.3775 21.2433 92.4654 22.3732Z" fill="white"/>
<path d="M74.5628 14.0121C74.5628 13.5602 74.5628 13.3342 74.4487 13.1083C74.3347 12.8823 74.2207 12.7693 73.8787 12.5433C73.7647 12.5433 73.6506 12.4303 73.4226 12.3173C72.9666 12.0914 72.8525 11.8654 72.8525 11.6394C72.8525 11.4134 72.8525 11.3005 73.0806 11.1875C73.1946 11.0745 73.4226 10.8485 73.7647 10.7355L73.9927 10.6225C75.3609 9.83164 76.387 9.49268 76.8431 9.49268C77.0711 9.49268 77.2991 9.60566 77.4131 9.83164C77.5271 10.0576 77.5271 10.5096 77.5271 11.4134V23.729C77.5271 24.068 77.5271 24.2939 77.6411 24.5199C77.7552 24.7459 77.8692 24.8589 77.9832 24.8589C78.0972 24.9719 78.3252 24.9719 78.5533 25.0848C79.1233 25.3108 79.4654 25.6498 79.4654 25.9887C79.4654 26.2147 79.3514 26.4407 79.1233 26.5537C78.8953 26.6667 78.5533 26.6667 77.9832 26.6667H74.2207C73.6506 26.6667 73.4226 26.6667 73.1946 26.5537C72.9666 26.4407 72.9666 26.3277 72.9666 26.1017C72.9666 25.8757 72.9666 25.7628 73.0806 25.6498C73.1946 25.5368 73.3086 25.4238 73.6506 25.3108C73.7647 25.3108 73.8787 25.1978 73.9927 25.0848C74.4487 24.8589 74.6768 24.5199 74.6768 23.842L74.5628 14.0121Z" fill="white"/>
<path d="M73.6531 4.4112C73.6531 3.73328 73.8811 3.28133 74.2231 2.94237C74.5652 2.60341 75.1353 2.37744 75.7053 2.37744C76.2754 2.37744 76.7315 2.60341 77.1875 2.94237C77.5296 3.39432 77.7576 3.84627 77.7576 4.4112C77.7576 4.97613 77.5296 5.54107 77.1875 5.88003C76.8455 6.21899 76.3894 6.44496 75.7053 6.44496C75.0213 6.44496 74.5652 6.21899 74.2231 5.88003C73.7671 5.54107 73.6531 5.08912 73.6531 4.4112Z" fill="white"/>
<path d="M66.015 4.5183C66.015 4.06635 66.015 3.84038 65.901 3.6144C65.787 3.50142 65.673 3.27544 65.3309 3.16246C65.2169 3.04947 65.1029 3.04947 64.8749 2.93648C64.4188 2.71051 64.3048 2.48454 64.3048 2.25856C64.3048 2.03259 64.3048 1.9196 64.5328 1.69363C64.6468 1.58064 64.8749 1.35467 65.2169 1.24168H65.3309C66.8131 0.450776 67.8393 0.111816 68.2953 0.111816C68.5233 0.111816 68.7514 0.224803 68.8654 0.450776C68.9794 0.67675 68.9794 1.1287 68.9794 1.9196V23.839C68.9794 24.178 68.9794 24.404 69.0934 24.6299C69.2074 24.8559 69.3215 24.9689 69.4355 24.9689C69.5495 24.9689 69.6635 25.0819 70.0055 25.1949C70.6896 25.4208 71.0317 25.7598 71.0317 26.0988C71.0317 26.3247 70.9177 26.5507 70.6896 26.6637C70.4616 26.7767 70.1196 26.7767 69.5495 26.7767H65.673C65.2169 26.7767 64.8749 26.7767 64.6469 26.6637C64.4188 26.5507 64.3048 26.4377 64.3048 26.2117C64.3048 25.9858 64.3048 25.8728 64.4188 25.7598C64.5328 25.6468 64.7609 25.5338 64.9889 25.4208C65.1029 25.4208 65.2169 25.3078 65.3309 25.1949C65.787 24.9689 66.015 24.6299 66.015 23.952V4.5183Z" fill="white"/>
<path d="M57.9185 4.51947C57.9185 4.06752 57.9185 3.84155 57.8045 3.61557C57.6904 3.50259 57.5764 3.27661 57.3484 3.16363C57.2344 3.05064 57.1204 3.05064 56.8923 2.93765C56.3223 2.59869 56.0942 2.37272 56.0942 2.14675C56.0942 1.92077 56.2083 1.80779 56.3223 1.58181C56.4363 1.46883 56.6643 1.24285 57.0064 1.12987H57.1204C58.6026 0.33896 59.6287 1.68363e-09 60.0847 1.68363e-09C60.3128 1.68363e-09 60.5408 0.112987 60.6548 0.33896V1.80779V23.7272C60.6548 24.0662 60.6548 24.2921 60.7688 24.5181C60.8828 24.7441 60.9969 24.8571 61.1109 24.8571C61.2249 24.8571 61.4529 24.9701 61.681 25.083C62.365 25.309 62.7071 25.648 62.7071 25.9869C62.7071 26.2129 62.5931 26.4389 62.365 26.5519C62.137 26.6649 61.795 26.6649 61.2249 26.6649H57.3484C56.7783 26.6649 56.5503 26.6649 56.3223 26.5519C56.0942 26.4389 56.0942 26.3259 56.0942 26.0999C56.0942 25.874 56.0942 25.761 56.2083 25.648C56.3223 25.535 56.5503 25.422 56.7783 25.309C56.8923 25.309 57.0064 25.196 57.1204 25.083C57.5764 24.8571 57.8045 24.5181 57.8045 23.8402L57.9185 4.51947Z" fill="white"/>
<path d="M53.6984 22.5991C53.5843 22.4861 53.4703 22.3732 53.2423 22.3732C53.0143 22.3732 52.6722 22.5991 52.1022 23.0511C51.6461 23.39 51.3041 23.616 50.962 23.842C50.3919 24.1809 49.7079 24.5199 49.0238 24.6329C48.4537 24.8589 47.6556 24.8589 46.9715 24.8589C46.6295 24.8589 46.2874 24.8589 46.0594 24.7459C45.1473 24.6329 44.2352 24.1809 43.5511 23.616C42.5249 22.8251 41.9549 21.6952 41.6128 20.3394C43.209 20.1134 44.6912 20.0004 46.0594 19.6615C47.9976 19.3225 49.5938 18.7576 50.734 18.1927C52.6722 17.1758 53.6984 15.8199 53.6984 14.1251C53.6984 12.6563 53.1283 11.5264 52.1022 10.7355C51.076 9.94462 49.5938 9.49268 47.5416 9.49268C46.9715 9.49268 46.5154 9.49268 46.0594 9.60566C44.1211 9.83164 42.5249 10.7355 41.0427 12.2044C39.2185 14.0121 38.4204 16.2719 38.4204 18.9836C38.4204 21.4693 39.2185 23.39 40.7007 24.8589C42.0689 26.2147 43.8931 27.0056 46.0594 27.1186H46.6295C47.4276 27.1186 48.2257 27.0056 49.0238 26.7796C49.8219 26.5537 50.506 26.3277 51.19 25.8757C51.9881 25.4238 52.6722 24.8589 53.1283 24.4069C53.5843 23.842 53.9264 23.503 53.9264 23.0511C53.9264 22.9381 53.8124 22.8251 53.6984 22.5991ZM41.3848 18.4186C41.3848 16.2719 41.9549 14.5771 43.095 13.2212C43.8931 12.2044 44.9192 11.6394 46.0594 11.3005C46.4014 11.1875 46.8575 11.1875 47.3135 11.1875C48.3397 11.1875 49.2518 11.4134 49.8219 11.9784C50.3919 12.4303 50.734 13.1082 50.734 14.0121C50.734 15.368 49.9359 16.3849 48.4537 17.0628C47.7696 17.4017 46.9715 17.6277 46.0594 17.9667C44.8052 18.3056 43.209 18.5316 41.3848 18.7576V18.4186Z" fill="white"/>
<path d="M30.5518 24.406V12.0905H29.4116C28.8416 12.0905 28.3855 11.9775 28.1575 11.8645C27.9294 11.7515 27.8154 11.4126 27.8154 11.0736C27.8154 10.8476 27.9294 10.6217 28.0435 10.3957C28.1575 10.2827 28.3855 10.1697 28.6135 10.0567H29.0696C29.8677 9.94375 30.3237 9.83076 30.5518 9.60479C30.7798 9.37882 31.0078 8.36194 31.2359 6.66714C31.2359 6.21519 31.3499 5.87623 31.3499 5.53727V4.97234C31.4639 3.84247 31.92 3.16455 32.49 3.16455C32.7181 3.16455 32.9461 3.27754 33.0601 3.39052C33.2881 3.72948 33.2881 4.18143 33.2881 5.08532V9.94375H35.7964C36.3665 9.94375 36.8226 10.0567 37.0506 10.1697C37.2786 10.2827 37.3927 10.6217 37.3927 10.9606C37.3927 11.2996 37.2786 11.5256 37.0506 11.7515C36.8226 11.8645 36.3665 11.9775 35.7964 11.9775H33.2881V22.3723C33.2881 23.0502 33.2881 23.6151 33.4021 23.8411C33.5162 24.1801 33.7442 24.406 33.9722 24.406C34.3143 24.519 34.9983 24.632 35.9105 24.632C36.8226 24.632 37.3927 24.971 37.3927 25.4229C37.3927 25.7619 37.2786 26.1008 37.0506 26.2138C36.8226 26.3268 36.2525 26.4398 35.3404 26.4398H31.92C31.2359 26.4398 30.8938 26.3268 30.6658 26.1008C30.6658 26.1008 30.5518 25.4229 30.5518 24.406Z" fill="white"/>
<path d="M10.4885 23.616V15.594C10.4885 14.4641 10.4885 13.6732 10.3745 13.4472C10.2605 13.1082 10.1465 12.8823 9.91847 12.6563C9.80445 12.5433 9.46241 12.4303 9.12037 12.2044C8.77832 12.0914 8.55029 11.8654 8.55029 11.5264C8.55029 11.1875 8.89234 10.8485 9.57642 10.2836C10.2605 9.71865 10.9446 9.49268 11.4007 9.49268C11.7427 9.49268 11.9707 9.71865 12.3128 10.2836C12.5408 10.7355 12.7688 11.5264 12.9969 12.4303C13.795 11.4134 14.5931 10.7355 15.6192 10.2836C16.6453 9.83164 17.6715 9.49268 18.8116 9.49268C20.7499 9.49268 22.3461 10.1706 23.2582 11.4134C24.2843 12.6563 24.7404 14.6901 24.7404 17.2888V23.616C24.7404 23.955 24.7404 24.2939 24.8544 24.4069C24.8544 24.6329 24.9684 24.6329 25.0824 24.7459C25.1964 24.8589 25.3104 24.9719 25.5385 24.9719C25.9945 25.1978 26.2225 25.5368 26.2225 25.7628C26.2225 25.9887 26.1085 26.1017 25.9945 26.2147C25.7665 26.3277 25.4244 26.3277 25.0824 26.3277H21.4339C20.9779 26.3277 20.6358 26.3277 20.5218 26.2147C20.2938 26.1017 20.2938 25.9887 20.2938 25.7628C20.2938 25.4238 20.5218 25.1978 20.8639 25.0848C20.9779 25.0848 21.0919 24.9719 21.0919 24.9719C21.548 24.7459 21.776 24.6329 21.89 24.4069C22.004 24.2939 22.004 23.955 22.004 23.39V17.4017C22.004 15.481 21.662 14.0121 20.9779 13.1082C20.2938 12.2044 19.2677 11.7524 17.7855 11.7524C16.4173 11.7524 15.2772 12.2044 14.479 12.8823C13.6809 13.6732 13.2249 14.6901 13.2249 16.0459V24.068V24.6329C13.2249 24.7459 13.3389 24.8589 13.4529 24.8589C13.5669 24.9719 13.6809 25.0848 14.023 25.0848C14.4791 25.3108 14.7071 25.5368 14.7071 25.8757C14.7071 26.1017 14.5931 26.3277 14.479 26.4407C14.251 26.5537 13.909 26.5537 13.4529 26.5537H10.1465C9.69044 26.5537 9.3484 26.5537 9.23438 26.4407C9.12037 26.3277 9.00635 26.2147 9.00635 25.9887C9.00635 25.7628 9.00635 25.6498 9.12037 25.5368C9.23438 25.4238 9.34839 25.3108 9.69044 25.0848C9.69044 25.0848 9.80445 25.0848 9.91847 24.9719C10.2605 24.8589 10.4885 24.4069 10.4885 23.616Z" fill="white"/>
<path d="M1.71034 14.0121C1.71034 13.5602 1.71034 13.3342 1.59633 13.1083C1.48231 12.8823 1.3683 12.7693 1.02625 12.5433C0.912239 12.5433 0.798224 12.4303 0.570195 12.3173C0.114137 12.0914 0.00012207 11.8654 0.00012207 11.6394C0.00012207 11.4134 0.00012207 11.3005 0.228151 11.1875C0.342166 11.0745 0.570195 10.8485 0.912239 10.7355L1.02625 10.6225C2.39443 9.83164 3.42056 9.49268 3.87662 9.49268C4.10465 9.49268 4.33268 9.60566 4.44669 9.83164C4.5607 10.0576 4.5607 10.5096 4.5607 11.4134V23.729C4.5607 24.068 4.5607 24.2939 4.67472 24.5199C4.78873 24.7459 4.90275 24.8589 5.01676 24.8589C5.24479 24.9719 5.35881 24.9719 5.58684 25.0848C6.15691 25.3108 6.49895 25.6498 6.49895 25.9887C6.49895 26.2147 6.38494 26.4407 6.15691 26.5537C5.92888 26.6667 5.58684 26.6667 5.01676 26.6667H1.25428C0.684209 26.6667 0.45618 26.6667 0.228151 26.5537C0.00012207 26.4407 0.00012207 26.3277 0.00012207 26.1017C0.00012207 25.8757 0.00012207 25.7628 0.114137 25.6498C0.228151 25.4238 0.342166 25.3108 0.570195 25.1978C0.684209 25.1978 0.798224 25.0848 0.912239 24.9719C1.3683 24.7459 1.59633 24.4069 1.59633 23.729L1.71034 14.0121Z" fill="white"/>
<path d="M0.800537 4.4112C0.800537 3.73328 1.02857 3.28133 1.37061 2.94237C1.71265 2.60341 2.28273 2.37744 2.8528 2.37744C3.42287 2.37744 3.99294 2.60341 4.33499 2.94237C4.67703 3.39432 4.90506 3.84627 4.90506 4.4112C4.90506 4.97613 4.67703 5.54107 4.33499 5.88003C3.99294 6.21899 3.42287 6.44496 2.8528 6.44496C2.16871 6.44496 1.71265 6.21899 1.37061 5.88003C0.914552 5.54107 0.800537 5.08912 0.800537 4.4112Z" fill="white"/>
<path d="M1.65744 43.1709V46.5591H0.792051V39.0493H1.65744V41.8068H1.73078C1.86279 41.5159 2.0608 41.2849 2.32481 41.1137C2.59128 40.9402 2.94574 40.8534 3.38822 40.8534C3.77202 40.8534 4.10815 40.9304 4.39661 41.0844C4.68508 41.236 4.90876 41.4694 5.06766 41.7848C5.229 42.0977 5.30967 42.4962 5.30967 42.9802V46.5591H4.44428V43.0389C4.44428 42.5915 4.32816 42.2456 4.09593 42.0011C3.86614 41.7542 3.54712 41.6308 3.13887 41.6308C2.85529 41.6308 2.60105 41.6907 2.37615 41.8104C2.15369 41.9302 1.97768 42.105 1.84812 42.3348C1.721 42.5646 1.65744 42.8433 1.65744 43.1709ZM10.4424 44.2563V40.9267H11.3078V46.5591H10.4424V45.6057H10.3837C10.2517 45.8917 10.0464 46.1349 9.76771 46.3354C9.48902 46.5334 9.137 46.6324 8.71164 46.6324C8.35962 46.6324 8.04671 46.5554 7.77291 46.4014C7.49912 46.245 7.28399 46.0103 7.12754 45.6974C6.97108 45.382 6.89286 44.9848 6.89286 44.5056V40.9267H7.75824V44.4469C7.75824 44.8576 7.87314 45.1852 8.10293 45.4297C8.33517 45.6741 8.63097 45.7964 8.99032 45.7964C9.20545 45.7964 9.42424 45.7414 9.6467 45.6314C9.8716 45.5213 10.0598 45.3527 10.2114 45.1253C10.3654 44.898 10.4424 44.6083 10.4424 44.2563ZM12.8928 46.5591V40.9267H13.7289V41.8068H13.8022C13.9196 41.5061 14.109 41.2726 14.3706 41.1064C14.6322 40.9377 14.9463 40.8534 15.313 40.8534C15.6846 40.8534 15.9938 40.9377 16.2407 41.1064C16.4901 41.2726 16.6844 41.5061 16.8237 41.8068H16.8824C17.0266 41.5159 17.243 41.2849 17.5315 41.1137C17.8199 40.9402 18.1658 40.8534 18.5692 40.8534C19.0728 40.8534 19.4847 41.0111 19.8049 41.3264C20.1252 41.6393 20.2853 42.127 20.2853 42.7895V46.5591H19.4199V42.7895C19.4199 42.3739 19.3062 42.0769 19.0789 41.8985C18.8515 41.72 18.5839 41.6308 18.2758 41.6308C17.8798 41.6308 17.573 41.7506 17.3554 41.9901C17.1379 42.2273 17.0291 42.5279 17.0291 42.8922V46.5591H16.149V42.7015C16.149 42.3813 16.0451 42.1234 15.8373 41.9278C15.6296 41.7298 15.3619 41.6308 15.0343 41.6308C14.8094 41.6308 14.5992 41.6907 14.4036 41.8104C14.2105 41.9302 14.054 42.0965 13.9342 42.3091C13.8169 42.5194 13.7582 42.7626 13.7582 43.0389V46.5591H12.8928ZM23.525 46.6911C23.1681 46.6911 22.8442 46.6239 22.5533 46.4894C22.2624 46.3525 22.0313 46.1557 21.8602 45.899C21.6891 45.6399 21.6035 45.327 21.6035 44.9603C21.6035 44.6376 21.6671 44.3761 21.7942 44.1756C21.9213 43.9727 22.0912 43.8138 22.3039 43.6989C22.5166 43.584 22.7513 43.4984 23.008 43.4422C23.2671 43.3835 23.5274 43.3371 23.789 43.3029C24.1313 43.2589 24.4087 43.2259 24.6214 43.2039C24.8365 43.1794 24.993 43.1391 25.0908 43.0829C25.191 43.0266 25.2411 42.9289 25.2411 42.7895V42.7602C25.2411 42.3984 25.1421 42.1172 24.9441 41.9168C24.7485 41.7163 24.4515 41.6161 24.053 41.6161C23.6399 41.6161 23.316 41.7066 23.0813 41.8875C22.8466 42.0684 22.6816 42.2615 22.5863 42.4668L21.7649 42.1735C21.9116 41.8312 22.1071 41.5648 22.3516 41.3741C22.5985 41.181 22.8674 41.0465 23.1583 40.9707C23.4517 40.8925 23.7401 40.8534 24.0237 40.8534C24.2046 40.8534 24.4124 40.8754 24.6471 40.9194C24.8842 40.9609 25.1128 41.0477 25.3328 41.1797C25.5552 41.3117 25.7398 41.511 25.8865 41.7774C26.0332 42.0439 26.1065 42.4008 26.1065 42.8482V46.5591H25.2411V45.7964H25.1971C25.1384 45.9186 25.0407 46.0494 24.9038 46.1887C24.7669 46.3281 24.5847 46.4466 24.3574 46.5444C24.13 46.6422 23.8526 46.6911 23.525 46.6911ZM23.657 45.9137C23.9993 45.9137 24.2877 45.8465 24.5224 45.712C24.7595 45.5776 24.938 45.404 25.0578 45.1913C25.18 44.9786 25.2411 44.755 25.2411 44.5203V43.7282C25.2044 43.7722 25.1238 43.8126 24.9991 43.8492C24.8769 43.8835 24.7351 43.914 24.5737 43.9409C24.4148 43.9654 24.2596 43.9874 24.108 44.0069C23.9589 44.024 23.8379 44.0387 23.745 44.0509C23.5201 44.0803 23.3099 44.1279 23.1143 44.1939C22.9212 44.2575 22.7647 44.3541 22.6449 44.4836C22.5276 44.6107 22.4689 44.7843 22.4689 45.0043C22.4689 45.305 22.5802 45.5323 22.8026 45.6864C23.0275 45.8379 23.3123 45.9137 23.657 45.9137ZM28.5514 43.1709V46.5591H27.686V40.9267H28.5221V41.8068H28.5954C28.7274 41.5208 28.9279 41.291 29.1968 41.1174C29.4657 40.9414 29.8128 40.8534 30.2382 40.8534C30.6195 40.8534 30.9532 40.9316 31.2392 41.0881C31.5253 41.2421 31.7477 41.4768 31.9066 41.7921C32.0655 42.105 32.145 42.501 32.145 42.9802V46.5591H31.2796V43.0389C31.2796 42.5964 31.1647 42.2517 30.9349 42.0048C30.7051 41.7554 30.3897 41.6308 29.9888 41.6308C29.7126 41.6308 29.4657 41.6907 29.2481 41.8104C29.033 41.9302 28.8631 42.105 28.7384 42.3348C28.6137 42.5646 28.5514 42.8433 28.5514 43.1709ZM33.7263 46.5591V40.9267H34.5917V46.5591H33.7263ZM34.1663 39.988C33.9977 39.988 33.8522 39.9305 33.73 39.8157C33.6102 39.7008 33.5503 39.5626 33.5503 39.4013C33.5503 39.2399 33.6102 39.1018 33.73 38.9869C33.8522 38.872 33.9977 38.8146 34.1663 38.8146C34.335 38.8146 34.4793 38.872 34.599 38.9869C34.7213 39.1018 34.7824 39.2399 34.7824 39.4013C34.7824 39.5626 34.7213 39.7008 34.599 39.8157C34.4793 39.9305 34.335 39.988 34.1663 39.988ZM36.0154 46.5591V45.899L39.2129 41.7921V41.7334H36.1181V40.9267H40.3277V41.6161L37.2181 45.6937V45.7524H40.4303V46.5591H36.0154ZM41.7632 46.5591V40.9267H42.6286V46.5591H41.7632ZM42.2033 39.988C42.0346 39.988 41.8891 39.9305 41.7669 39.8157C41.6471 39.7008 41.5872 39.5626 41.5872 39.4013C41.5872 39.2399 41.6471 39.1018 41.7669 38.9869C41.8891 38.872 42.0346 38.8146 42.2033 38.8146C42.372 38.8146 42.5162 38.872 42.636 38.9869C42.7582 39.1018 42.8193 39.2399 42.8193 39.4013C42.8193 39.5626 42.7582 39.7008 42.636 39.8157C42.5162 39.9305 42.372 39.988 42.2033 39.988ZM45.079 43.1709V46.5591H44.2137V40.9267H45.0497V41.8068H45.123C45.2551 41.5208 45.4555 41.291 45.7244 41.1174C45.9933 40.9414 46.3405 40.8534 46.7658 40.8534C47.1472 40.8534 47.4809 40.9316 47.7669 41.0881C48.0529 41.2421 48.2754 41.4768 48.4343 41.7921C48.5932 42.105 48.6726 42.501 48.6726 42.9802V46.5591H47.8072V43.0389C47.8072 42.5964 47.6923 42.2517 47.4625 42.0048C47.2327 41.7554 46.9174 41.6308 46.5165 41.6308C46.2402 41.6308 45.9933 41.6907 45.7758 41.8104C45.5606 41.9302 45.3907 42.105 45.2661 42.3348C45.1414 42.5646 45.079 42.8433 45.079 43.1709ZM52.5274 48.7886C52.1094 48.7886 51.75 48.7348 51.4494 48.6272C51.1487 48.5221 50.8981 48.3828 50.6976 48.2092C50.4996 48.0381 50.342 47.8547 50.2246 47.6592L50.914 47.1751C50.9922 47.2778 51.0912 47.3951 51.211 47.5271C51.3308 47.6616 51.4946 47.7777 51.7024 47.8755C51.9126 47.9757 52.1876 48.0258 52.5274 48.0258C52.9821 48.0258 53.3574 47.9158 53.6532 47.6958C53.949 47.4758 54.0969 47.1311 54.0969 46.6618V45.5177H54.0235C53.96 45.6204 53.8695 45.7475 53.7522 45.899C53.6373 46.0482 53.471 46.1814 53.2535 46.2987C53.0384 46.4136 52.7474 46.4711 52.3808 46.4711C51.9261 46.4711 51.5178 46.3635 51.156 46.1484C50.7967 45.9333 50.5119 45.6204 50.3016 45.2097C50.0938 44.799 49.9899 44.3003 49.9899 43.7136C49.9899 43.1366 50.0914 42.6343 50.2943 42.2065C50.4972 41.7762 50.7795 41.4438 51.1413 41.2091C51.5031 40.9719 51.9212 40.8534 52.3954 40.8534C52.7621 40.8534 53.053 40.9145 53.2681 41.0367C53.4857 41.1565 53.6519 41.2934 53.7668 41.4474C53.8842 41.599 53.9746 41.7237 54.0382 41.8214H54.1262V40.9267H54.9623V46.7204C54.9623 47.2045 54.8522 47.598 54.6322 47.9012C54.4147 48.2067 54.1213 48.4304 53.7522 48.5722C53.3855 48.7164 52.9772 48.7886 52.5274 48.7886ZM52.4981 45.6937C52.8452 45.6937 53.1386 45.6142 53.3782 45.4553C53.6177 45.2964 53.7998 45.0679 53.9245 44.7696C54.0492 44.4714 54.1115 44.1145 54.1115 43.6989C54.1115 43.2931 54.0504 42.935 53.9282 42.6245C53.806 42.314 53.6251 42.0708 53.3855 41.8948C53.1459 41.7188 52.8501 41.6308 52.4981 41.6308C52.1314 41.6308 51.8258 41.7237 51.5814 41.9095C51.3394 42.0952 51.1572 42.3446 51.035 42.6575C50.9152 42.9704 50.8553 43.3175 50.8553 43.6989C50.8553 44.09 50.9164 44.4359 51.0387 44.7366C51.1633 45.0349 51.3467 45.2696 51.5887 45.4407C51.8332 45.6094 52.1363 45.6937 52.4981 45.6937ZM59.8759 46.5591H58.9225L61.68 39.0493H62.6187L65.3763 46.5591H64.4229L62.1787 40.2373H62.12L59.8759 46.5591ZM60.2279 43.6256H64.0708V44.4323H60.2279V43.6256ZM67.4554 39.0493V46.5591H66.546V39.0493H67.4554ZM74.5738 40.9267V41.6601H71.5376V40.9267H74.5738ZM72.447 46.5591V40.1493C72.447 39.8267 72.5227 39.5577 72.6743 39.3426C72.8259 39.1275 73.0227 38.9662 73.2647 38.8586C73.5067 38.751 73.7621 38.6972 74.0311 38.6972C74.2437 38.6972 74.4173 38.7144 74.5518 38.7486C74.6862 38.7828 74.7864 38.8146 74.8524 38.8439L74.6031 39.592C74.5591 39.5773 74.498 39.559 74.4197 39.537C74.344 39.515 74.2437 39.504 74.1191 39.504C73.833 39.504 73.6265 39.5761 73.4994 39.7203C73.3747 39.8645 73.3123 40.076 73.3123 40.3547V46.5591H72.447ZM77.8428 46.6764C77.3343 46.6764 76.8882 46.5554 76.5044 46.3134C76.123 46.0714 75.8248 45.7328 75.6097 45.2977C75.397 44.8625 75.2906 44.3541 75.2906 43.7722C75.2906 43.1855 75.397 42.6734 75.6097 42.2358C75.8248 41.7982 76.123 41.4584 76.5044 41.2164C76.8882 40.9744 77.3343 40.8534 77.8428 40.8534C78.3513 40.8534 78.7962 40.9744 79.1776 41.2164C79.5614 41.4584 79.8596 41.7982 80.0723 42.2358C80.2874 42.6734 80.395 43.1855 80.395 43.7722C80.395 44.3541 80.2874 44.8625 80.0723 45.2977C79.8596 45.7328 79.5614 46.0714 79.1776 46.3134C78.7962 46.5554 78.3513 46.6764 77.8428 46.6764ZM77.8428 45.899C78.229 45.899 78.5468 45.8 78.7962 45.602C79.0455 45.404 79.2301 45.1437 79.3499 44.821C79.4697 44.4983 79.5296 44.1487 79.5296 43.7722C79.5296 43.3958 79.4697 43.045 79.3499 42.7198C79.2301 42.3947 79.0455 42.1319 78.7962 41.9315C78.5468 41.731 78.229 41.6308 77.8428 41.6308C77.4566 41.6308 77.1388 41.731 76.8894 41.9315C76.6401 42.1319 76.4555 42.3947 76.3357 42.7198C76.2159 43.045 76.156 43.3958 76.156 43.7722C76.156 44.1487 76.2159 44.4983 76.3357 44.821C76.4555 45.1437 76.6401 45.404 76.8894 45.602C77.1388 45.8 77.4566 45.899 77.8428 45.899ZM81.716 46.5591V40.9267H82.552V41.7774H82.6107C82.7134 41.4988 82.8991 41.2726 83.1681 41.0991C83.437 40.9255 83.7401 40.8387 84.0774 40.8387C84.141 40.8387 84.2205 40.8399 84.3158 40.8424C84.4111 40.8448 84.4833 40.8485 84.5321 40.8534V41.7334C84.5028 41.7261 84.4356 41.7151 84.3305 41.7004C84.2278 41.6833 84.119 41.6748 84.0041 41.6748C83.7303 41.6748 83.4859 41.7322 83.2707 41.8471C83.058 41.9596 82.8894 42.116 82.7647 42.3165C82.6425 42.5145 82.5814 42.7406 82.5814 42.9949V46.5591H81.716ZM90.8236 46.6764C90.2809 46.6764 89.8128 46.5566 89.4192 46.3171C89.0281 46.0751 88.7262 45.7377 88.5135 45.305C88.3032 44.8699 88.1981 44.3638 88.1981 43.7869C88.1981 43.21 88.3032 42.7015 88.5135 42.2615C88.7262 41.819 89.022 41.4743 89.4009 41.2274C89.7822 40.9781 90.2271 40.8534 90.7356 40.8534C91.029 40.8534 91.3187 40.9023 91.6047 41.0001C91.8907 41.0978 92.151 41.2567 92.3857 41.4768C92.6204 41.6943 92.8074 41.9828 92.9468 42.3421C93.0861 42.7015 93.1558 43.144 93.1558 43.6696V44.0363H88.8142V43.2882H92.2757C92.2757 42.9704 92.2122 42.6868 92.085 42.4375C91.9604 42.1881 91.7819 41.9913 91.5497 41.8471C91.3199 41.7029 91.0485 41.6308 90.7356 41.6308C90.3909 41.6308 90.0927 41.7163 89.8409 41.8875C89.5915 42.0561 89.3996 42.2761 89.2652 42.5475C89.1307 42.8188 89.0635 43.1098 89.0635 43.4202V43.9189C89.0635 44.3443 89.1368 44.7049 89.2835 45.0006C89.4326 45.294 89.6392 45.5177 89.9032 45.6717C90.1672 45.8233 90.474 45.899 90.8236 45.899C91.051 45.899 91.2563 45.8673 91.4397 45.8037C91.6255 45.7377 91.7856 45.6399 91.92 45.5103C92.0545 45.3783 92.1584 45.2146 92.2317 45.019L93.0678 45.2537C92.9798 45.5372 92.8319 45.7866 92.6241 46.0017C92.4163 46.2144 92.1596 46.3806 91.854 46.5004C91.5484 46.6178 91.205 46.6764 90.8236 46.6764ZM95.3376 43.1709V46.5591H94.4722V40.9267H95.3082V41.8068H95.3816C95.5136 41.5208 95.714 41.291 95.983 41.1174C96.2519 40.9414 96.599 40.8534 97.0244 40.8534C97.4057 40.8534 97.7394 40.9316 98.0254 41.0881C98.3114 41.2421 98.5339 41.4768 98.6928 41.7921C98.8517 42.105 98.9311 42.501 98.9311 42.9802V46.5591H98.0658V43.0389C98.0658 42.5964 97.9509 42.2517 97.7211 42.0048C97.4913 41.7554 97.1759 41.6308 96.775 41.6308C96.4988 41.6308 96.2519 41.6907 96.0343 41.8104C95.8192 41.9302 95.6493 42.105 95.5246 42.3348C95.3999 42.5646 95.3376 42.8433 95.3376 43.1709ZM102.962 40.9267V41.6601H100.043V40.9267H102.962ZM100.894 39.5773H101.759V44.9456C101.759 45.1901 101.795 45.3735 101.866 45.4957C101.939 45.6155 102.032 45.6961 102.144 45.7377C102.259 45.7768 102.38 45.7964 102.507 45.7964C102.603 45.7964 102.681 45.7915 102.742 45.7817C102.803 45.7695 102.852 45.7597 102.889 45.7524L103.065 46.5297C103.006 46.5517 102.924 46.5737 102.819 46.5958C102.714 46.6202 102.581 46.6324 102.419 46.6324C102.175 46.6324 101.935 46.5799 101.701 46.4747C101.468 46.3696 101.275 46.2095 101.121 45.9944C100.97 45.7793 100.894 45.5079 100.894 45.1803V39.5773ZM106.565 46.6764C106.022 46.6764 105.554 46.5566 105.16 46.3171C104.769 46.0751 104.467 45.7377 104.255 45.305C104.044 44.8699 103.939 44.3638 103.939 43.7869C103.939 43.21 104.044 42.7015 104.255 42.2615C104.467 41.819 104.763 41.4743 105.142 41.2274C105.523 40.9781 105.968 40.8534 106.477 40.8534C106.77 40.8534 107.06 40.9023 107.346 41.0001C107.632 41.0978 107.892 41.2567 108.127 41.4768C108.361 41.6943 108.549 41.9828 108.688 42.3421C108.827 42.7015 108.897 43.144 108.897 43.6696V44.0363H104.555V43.2882H108.017C108.017 42.9704 107.953 42.6868 107.826 42.4375C107.701 42.1881 107.523 41.9913 107.291 41.8471C107.061 41.7029 106.79 41.6308 106.477 41.6308C106.132 41.6308 105.834 41.7163 105.582 41.8875C105.333 42.0561 105.141 42.2761 105.006 42.5475C104.872 42.8188 104.805 43.1098 104.805 43.4202V43.9189C104.805 44.3443 104.878 44.7049 105.025 45.0006C105.174 45.294 105.38 45.5177 105.644 45.6717C105.908 45.8233 106.215 45.899 106.565 45.899C106.792 45.899 106.997 45.8673 107.181 45.8037C107.367 45.7377 107.527 45.6399 107.661 45.5103C107.796 45.3783 107.899 45.2146 107.973 45.019L108.809 45.2537C108.721 45.5372 108.573 45.7866 108.365 46.0017C108.157 46.2144 107.901 46.3806 107.595 46.5004C107.29 46.6178 106.946 46.6764 106.565 46.6764ZM110.213 46.5591V40.9267H111.049V41.7774H111.108C111.211 41.4988 111.396 41.2726 111.665 41.0991C111.934 40.9255 112.237 40.8387 112.575 40.8387C112.638 40.8387 112.718 40.8399 112.813 40.8424C112.908 40.8448 112.981 40.8485 113.029 40.8534V41.7334C113 41.7261 112.933 41.7151 112.828 41.7004C112.725 41.6833 112.616 41.6748 112.501 41.6748C112.228 41.6748 111.983 41.7322 111.768 41.8471C111.555 41.9596 111.387 42.116 111.262 42.3165C111.14 42.5145 111.079 42.7406 111.079 42.9949V46.5591H110.213ZM114.055 48.6712V40.9267H114.891V41.8214H114.994C115.058 41.7237 115.146 41.599 115.258 41.4474C115.373 41.2934 115.537 41.1565 115.749 41.0367C115.965 40.9145 116.255 40.8534 116.622 40.8534C117.096 40.8534 117.514 40.9719 117.876 41.2091C118.238 41.4462 118.52 41.7823 118.723 42.2175C118.926 42.6526 119.028 43.166 119.028 43.7576C119.028 44.3541 118.926 44.8711 118.723 45.3087C118.52 45.7438 118.239 46.0812 117.88 46.3207C117.52 46.5579 117.106 46.6764 116.637 46.6764C116.275 46.6764 115.985 46.6165 115.768 46.4967C115.55 46.3745 115.383 46.2364 115.265 46.0824C115.148 45.9259 115.058 45.7964 114.994 45.6937H114.921V48.6712H114.055ZM114.906 43.7429C114.906 44.1683 114.968 44.5435 115.093 44.8686C115.218 45.1913 115.4 45.4443 115.639 45.6277C115.879 45.8086 116.172 45.899 116.519 45.899C116.881 45.899 117.183 45.8037 117.425 45.613C117.67 45.4199 117.853 45.1608 117.975 44.8356C118.1 44.5081 118.162 44.1438 118.162 43.7429C118.162 43.3469 118.101 42.99 117.979 42.6722C117.859 42.3519 117.677 42.0989 117.432 41.9131C117.19 41.7249 116.886 41.6308 116.519 41.6308C116.167 41.6308 115.872 41.72 115.632 41.8985C115.392 42.0745 115.212 42.3214 115.089 42.6392C114.967 42.9545 114.906 43.3224 114.906 43.7429ZM120.348 46.5591V40.9267H121.184V41.7774H121.242C121.345 41.4988 121.531 41.2726 121.8 41.0991C122.069 40.9255 122.372 40.8387 122.709 40.8387C122.773 40.8387 122.852 40.8399 122.948 40.8424C123.043 40.8448 123.115 40.8485 123.164 40.8534V41.7334C123.135 41.7261 123.067 41.7151 122.962 41.7004C122.86 41.6833 122.751 41.6748 122.636 41.6748C122.362 41.6748 122.118 41.7322 121.902 41.8471C121.69 41.9596 121.521 42.116 121.396 42.3165C121.274 42.5145 121.213 42.7406 121.213 42.9949V46.5591H120.348ZM124.19 46.5591V40.9267H125.055V46.5591H124.19ZM124.63 39.988C124.461 39.988 124.316 39.9305 124.193 39.8157C124.074 39.7008 124.014 39.5626 124.014 39.4013C124.014 39.2399 124.074 39.1018 124.193 38.9869C124.316 38.872 124.461 38.8146 124.63 38.8146C124.798 38.8146 124.943 38.872 125.062 38.9869C125.185 39.1018 125.246 39.2399 125.246 39.4013C125.246 39.5626 125.185 39.7008 125.062 39.8157C124.943 39.9305 124.798 39.988 124.63 39.988ZM130.63 42.1881L129.852 42.4082C129.803 42.2786 129.731 42.1527 129.636 42.0305C129.543 41.9058 129.416 41.8031 129.255 41.7224C129.093 41.6418 128.887 41.6014 128.635 41.6014C128.29 41.6014 128.003 41.6809 127.773 41.8398C127.546 41.9962 127.432 42.1955 127.432 42.4375C127.432 42.6526 127.51 42.8225 127.667 42.9472C127.823 43.0719 128.068 43.1758 128.4 43.2589L129.236 43.4642C129.74 43.5864 130.115 43.7735 130.362 44.0253C130.609 44.2746 130.732 44.5961 130.732 44.9896C130.732 45.3123 130.639 45.6008 130.454 45.855C130.27 46.1093 130.014 46.3097 129.684 46.4564C129.354 46.6031 128.97 46.6764 128.532 46.6764C127.958 46.6764 127.482 46.5517 127.106 46.3024C126.729 46.053 126.491 45.6888 126.391 45.2097L127.212 45.0043C127.29 45.3074 127.438 45.5348 127.656 45.6864C127.876 45.8379 128.163 45.9137 128.518 45.9137C128.921 45.9137 129.241 45.8281 129.478 45.657C129.718 45.4835 129.838 45.2757 129.838 45.0337C129.838 44.8381 129.769 44.6743 129.632 44.5423C129.495 44.4078 129.285 44.3076 129.002 44.2416L128.063 44.0216C127.547 43.8994 127.168 43.7099 126.926 43.4532C126.687 43.1941 126.567 42.8702 126.567 42.4815C126.567 42.1637 126.656 41.8826 126.834 41.6381C127.015 41.3936 127.261 41.2017 127.571 41.0624C127.884 40.9231 128.239 40.8534 128.635 40.8534C129.192 40.8534 129.63 40.9756 129.948 41.2201C130.268 41.4645 130.495 41.7872 130.63 42.1881ZM134.396 46.6764C133.854 46.6764 133.386 46.5566 132.992 46.3171C132.601 46.0751 132.299 45.7377 132.086 45.305C131.876 44.8699 131.771 44.3638 131.771 43.7869C131.771 43.21 131.876 42.7015 132.086 42.2615C132.299 41.819 132.595 41.4743 132.974 41.2274C133.355 40.9781 133.8 40.8534 134.308 40.8534C134.602 40.8534 134.892 40.9023 135.178 41.0001C135.464 41.0978 135.724 41.2567 135.959 41.4768C136.193 41.6943 136.38 41.9828 136.52 42.3421C136.659 42.7015 136.729 43.144 136.729 43.6696V44.0363H132.387V43.2882H135.849C135.849 42.9704 135.785 42.6868 135.658 42.4375C135.533 42.1881 135.355 41.9913 135.123 41.8471C134.893 41.7029 134.621 41.6308 134.308 41.6308C133.964 41.6308 133.666 41.7163 133.414 41.8875C133.164 42.0561 132.973 42.2761 132.838 42.5475C132.704 42.8188 132.636 43.1098 132.636 43.4202V43.9189C132.636 44.3443 132.71 44.7049 132.856 45.0006C133.006 45.294 133.212 45.5177 133.476 45.6717C133.74 45.8233 134.047 45.899 134.396 45.899C134.624 45.899 134.829 45.8673 135.013 45.8037C135.198 45.7377 135.358 45.6399 135.493 45.5103C135.627 45.3783 135.731 45.2146 135.805 45.019L136.641 45.2537C136.553 45.5372 136.405 45.7866 136.197 46.0017C135.989 46.2144 135.732 46.3806 135.427 46.5004C135.121 46.6178 134.778 46.6764 134.396 46.6764ZM142.035 42.1881L141.257 42.4082C141.208 42.2786 141.136 42.1527 141.041 42.0305C140.948 41.9058 140.821 41.8031 140.66 41.7224C140.498 41.6418 140.292 41.6014 140.04 41.6014C139.695 41.6014 139.408 41.6809 139.178 41.8398C138.951 41.9962 138.837 42.1955 138.837 42.4375C138.837 42.6526 138.915 42.8225 139.072 42.9472C139.228 43.0719 139.473 43.1758 139.805 43.2589L140.641 43.4642C141.145 43.5864 141.52 43.7735 141.767 44.0253C142.014 44.2746 142.137 44.5961 142.137 44.9896C142.137 45.3123 142.044 45.6008 141.859 45.855C141.675 46.1093 141.419 46.3097 141.089 46.4564C140.759 46.6031 140.375 46.6764 139.937 46.6764C139.363 46.6764 138.887 46.5517 138.511 46.3024C138.134 46.053 137.896 45.6888 137.796 45.2097L138.617 45.0043C138.695 45.3074 138.843 45.5348 139.061 45.6864C139.281 45.8379 139.568 45.9137 139.923 45.9137C140.326 45.9137 140.646 45.8281 140.883 45.657C141.123 45.4835 141.243 45.2757 141.243 45.0337C141.243 44.8381 141.174 44.6743 141.037 44.5423C140.9 44.4078 140.69 44.3076 140.407 44.2416L139.468 44.0216C138.952 43.8994 138.573 43.7099 138.331 43.4532C138.092 43.1941 137.972 42.8702 137.972 42.4815C137.972 42.1637 138.061 41.8826 138.239 41.6381C138.42 41.3936 138.666 41.2017 138.976 41.0624C139.289 40.9231 139.644 40.8534 140.04 40.8534C140.597 40.8534 141.035 40.9756 141.353 41.2201C141.673 41.4645 141.9 41.7872 142.035 42.1881Z" fill="white"/>
</svg>
