<svg width="334" height="250" viewBox="0 0 334 250" fill="none" xmlns="http://www.w3.org/2000/svg">
<g clip-path="url(#clip0_2407_12459)">

<path d="M270.163 57.1406C270.328 54.9609 271.322 53.0546 273 51.6281C274.837 50.0883 277.218 49.3341 279.618 49.5317C281.903 49.742 284.326 51.0052 285.765 52.7734C287.485 54.8899 287.649 56.63 287.645 59.2126C287.387 71.4447 287.608 84.7099 287.633 97.0121V155.748L287.625 182.364C287.622 184.542 287.642 186.72 287.685 188.898C287.698 189.784 287.759 191.926 287.666 192.717C287.314 197.096 283.782 200.31 279.394 200.571C276.999 200.707 274.65 199.888 272.871 198.296C270.801 196.425 270.17 194.341 270.072 191.674L270.049 191.547C268.782 191.762 265.965 191.692 264.568 191.685C261.631 191.663 258.695 191.656 255.76 191.664L220.181 191.67H102.713L75.4914 191.683L67.6676 191.661C66.942 191.663 64.613 191.629 64.053 191.736C64.0017 191.946 63.9152 192.559 63.862 192.644C63.6684 194.491 63.167 195.895 61.9684 197.361C60.4481 199.208 58.2384 200.368 55.8406 200.58C50.8453 201.044 46.7988 197.647 46.335 192.72C46.1975 191.78 46.2787 187.988 46.2795 186.83L46.2941 173.915L46.295 131.03L46.2949 78.4974L46.2626 64.7503C46.2558 63.0143 46.144 58.7695 46.3818 57.3136C46.4772 55.5585 47.0598 54.0518 48.1957 52.6916C49.7357 50.8659 51.9502 49.7256 54.3455 49.5251C56.7723 49.346 59.1711 50.1309 61.0111 51.7057C62.7105 53.1596 63.6401 54.99 63.819 57.1935L63.9065 58.3031C69.1354 58.4442 74.8433 58.308 80.1183 58.3069L113.53 58.2897L215.66 58.3058L252.855 58.2952L263.564 58.3049C265.529 58.3008 268.141 58.2277 270.073 58.3438L270.163 57.1406Z" fill="#EBEBEB"/>
<path d="M46.3818 57.3136C46.4772 55.5585 47.0598 54.0518 48.1957 52.6916C49.7357 50.8659 51.9502 49.7256 54.3455 49.5251C56.7723 49.346 59.1711 50.1309 61.0111 51.7057C62.7105 53.1596 63.6401 54.99 63.819 57.1935L63.9065 58.3031C63.7617 59.0957 63.8174 61.206 63.8177 62.087L63.8357 69.8499L63.8605 95.3884L63.8422 158.235C63.8267 169.228 64.025 180.738 63.8053 191.69C63.8151 191.914 63.8255 192.451 63.862 192.644C63.6684 194.491 63.167 195.895 61.9684 197.361C60.4481 199.208 58.2384 200.368 55.8406 200.58C50.8453 201.044 46.7988 197.647 46.335 192.72C46.1975 191.78 46.2787 187.988 46.2795 186.83L46.2941 173.915L46.295 131.03L46.2949 78.4974L46.2626 64.7503C46.2558 63.0143 46.144 58.7695 46.3818 57.3136Z" fill="#C2CCD8"/>
<path d="M46.3359 192.719C46.3831 192.466 46.4299 192.352 46.5108 192.11C49.4479 189.139 56.242 189.619 60.1394 190.237C61.1097 190.392 62.8635 191.229 63.8062 191.689C63.816 191.913 63.8264 192.45 63.8629 192.643C63.6693 194.49 63.1678 195.894 61.9693 197.36C60.449 199.207 58.2393 200.368 55.8415 200.579C50.8462 201.043 46.7996 197.647 46.3359 192.719Z" fill="#C2CCD8"/>
<path d="M46.3817 57.3136C46.477 55.5585 47.0596 54.0518 48.1956 52.6916C49.7355 50.8659 51.95 49.7256 54.3454 49.5251C56.7721 49.346 59.1709 50.1309 61.0109 51.7057C62.7104 53.1596 63.6399 54.99 63.8188 57.1935C63.7916 57.6979 63.8674 57.8879 63.6064 58.2536C63.0834 58.095 62.7875 57.761 62.2819 57.5524C58.2523 55.8907 52.725 55.8894 48.6448 57.3681C47.9591 57.6167 47.2368 58.6422 46.562 58.674C46.288 58.2851 46.3976 57.882 46.3817 57.3136Z" fill="#C2CCD8"/>
<path d="M270.163 57.1399C270.328 54.9602 271.322 53.0539 273 51.6273C274.837 50.0876 277.218 49.3333 279.618 49.531C281.903 49.7413 284.326 51.0045 285.765 52.7726C287.485 54.8891 287.649 56.6292 287.645 59.2118C287.387 71.4439 287.608 84.7092 287.634 97.0114V155.747L287.625 182.363C287.622 184.541 287.642 186.719 287.685 188.898C287.698 189.783 287.759 191.926 287.666 192.717C287.314 197.095 283.782 200.31 279.394 200.571C276.999 200.706 274.65 199.887 272.871 198.295C270.801 196.424 270.17 194.341 270.072 191.673L270.049 191.547C270.093 185.009 270.1 178.474 270.072 171.936L270.067 134.183L270.073 58.3431L270.163 57.1399Z" fill="#C2CCD8"/>
<path d="M270.071 191.675C274.651 189.464 283.401 188.61 287.495 192.168C287.582 192.405 287.615 192.473 287.666 192.718C287.314 197.097 283.782 200.311 279.394 200.572C276.999 200.707 274.65 199.888 272.871 198.296C270.801 196.426 270.17 194.342 270.071 191.675Z" fill="#C2CCD8"/>
<path d="M270.163 57.1399C270.328 54.9602 271.322 53.0539 273 51.6273C274.837 50.0876 277.218 49.3333 279.618 49.531C281.903 49.7413 284.327 51.0045 285.765 52.7726C287.486 54.8891 287.649 56.6292 287.645 59.2118C286.046 57.7714 284.669 56.9459 282.454 56.5998C279.051 56.0684 273.827 56.0328 270.94 58.0162C270.71 58.1734 270.696 58.2002 270.394 58.1931C270.105 57.8135 270.192 57.6816 270.163 57.1399Z" fill="#C2CCD8"/>
<path d="M131.187 98.473L131.107 88.9922C131.095 86.911 131.002 83.9471 131.336 81.9648C131.924 78.4639 133.905 75.3417 136.837 73.2955C138.34 72.2331 140.054 71.498 141.866 71.1387C144.484 70.6169 154.973 70.8047 158.074 71.0238C161.477 71.2643 164.933 74.543 166.905 77.3574L166.993 77.3885C167.746 76.6458 168.344 75.6384 169.084 74.8644C173.921 69.8029 179.382 71.0033 185.627 70.8804C190.669 70.7811 194.771 70.7594 198.693 74.5918C202 77.747 202.781 81.3095 202.754 85.6611C202.728 89.827 202.772 94.0677 202.747 98.2577C202.415 106.899 196.621 112.681 187.642 112.139C182.549 111.832 177.301 113.081 172.531 110.928C172.621 113.029 171.492 114.998 169.623 116.002C168.058 116.843 166.18 116.893 164.571 116.136C162.693 115.253 161.468 113.41 161.394 111.354L161.297 111.109L161.06 111.096C159.711 111.777 158.223 112.147 156.709 112.179C154.482 112.239 151.999 112.141 149.751 112.173C144.251 112.249 139.733 112.486 135.429 108.395C132.383 105.501 131.287 102.562 131.187 98.473Z" fill="#FDFDFD"/>
<path d="M131.187 98.473L131.107 88.9922C131.095 86.911 131.002 83.9471 131.336 81.9648C131.924 78.4639 133.905 75.3417 136.837 73.2955C138.34 72.2331 140.054 71.498 141.866 71.1387C144.484 70.6169 154.973 70.8047 158.074 71.0238C161.477 71.2643 164.933 74.543 166.905 77.3574C166.175 77.7297 163.352 77.5998 162.432 77.5853C158.418 77.5467 154.403 77.545 150.389 77.5802C145.91 77.591 140.436 76.5809 138.326 81.5846C138.048 82.2516 137.873 82.9562 137.806 83.6749C137.677 84.9675 137.762 87.5357 137.762 88.9427C137.752 92.1265 137.76 95.3104 137.787 98.4941C135.618 98.4271 133.363 98.4652 131.187 98.473Z" fill="#3FC399"/>
<path d="M166.992 77.3899C167.745 76.6473 168.344 75.6398 169.083 74.8659C173.92 69.8043 179.381 71.0047 185.626 70.8818C190.668 70.7826 194.77 70.7609 198.692 74.5932C201.999 77.7484 202.78 81.311 202.753 85.6626C202.728 89.8285 202.772 94.0691 202.746 98.2591C202.661 98.3257 202.576 98.3923 202.492 98.459C201.509 98.4263 196.743 98.6878 196.116 98.3811C196.096 95.0378 196.096 91.6943 196.115 88.351C196.118 86.5258 196.276 84.5473 195.955 82.7542C195.556 80.5229 193.741 78.6765 191.61 77.9395C189.342 77.1548 174.238 77.6018 170.58 77.6282C169.709 77.6345 167.675 77.8663 166.992 77.3899Z" fill="#3FC399"/>
<path d="M131.187 98.4748C133.363 98.4671 135.617 98.429 137.786 98.496C137.856 100.505 138.296 102.035 139.844 103.466C140.729 104.285 141.822 104.85 143.006 105.102C144.644 105.463 148.926 105.347 150.786 105.347L163.612 105.366C164.567 105.368 166.274 105.132 166.998 105.649C167.051 105.649 167.102 105.65 167.155 105.652C170.065 105.751 172.409 108.051 172.53 110.93C172.62 113.031 171.491 114.999 169.622 116.004C168.057 116.844 166.18 116.894 164.57 116.138C162.692 115.255 161.467 113.411 161.393 111.356L161.296 111.11L161.059 111.097C159.71 111.778 158.222 112.149 156.708 112.181C154.482 112.241 151.999 112.143 149.75 112.175C144.25 112.251 139.733 112.488 135.428 108.397C132.382 105.503 131.286 102.564 131.187 98.4748Z" fill="#3FC399"/>
<path d="M166.998 105.647C167.051 105.647 167.102 105.648 167.155 105.65C170.066 105.749 172.409 108.049 172.53 110.928C172.62 113.029 171.491 114.997 169.622 116.001C168.057 116.842 166.18 116.892 164.57 116.136C162.692 115.253 161.467 113.409 161.393 111.354C161.339 109.853 161.907 108.395 162.965 107.318C164.023 106.241 165.48 105.637 166.998 105.647Z" fill="#684DA4"/>
<path d="M196.116 98.3798C196.743 98.6865 201.508 98.425 202.492 98.4577C202.576 98.391 202.66 98.3244 202.746 98.2578C202.414 106.899 196.62 112.681 187.641 112.139C182.548 111.832 177.299 113.081 172.53 110.928C172.409 108.05 170.065 105.75 167.154 105.65C168.45 104.718 188.786 106.065 191.906 104.873C195.052 103.672 196.063 101.521 196.116 98.3798Z" fill="#3FC399"/>
<path d="M145.299 90.0489C147.467 89.935 149.833 90.0284 152.028 90.0253C163.684 90.0251 175.345 90.0065 186.999 90.019C187.927 90.0201 188.984 89.947 189.407 90.9084C189.789 91.7749 189.129 92.5793 188.536 93.0954C188.292 93.1152 188.05 93.1311 187.808 93.1435C185.262 93.2657 181.661 93.159 179.052 93.1597L162.482 93.1673L151.456 93.1596C149.65 93.1583 147.551 93.2588 145.786 93.0994C143.948 92.9334 144.022 91.1478 145.299 90.0489Z" fill="#C2CCD8"/>
<path d="M145.26 83.7159C147.672 83.5783 150.923 83.6818 153.405 83.6831L168.676 83.6894L181.517 83.6842C183.611 83.6839 185.936 83.5779 187.99 83.7166C189.99 83.8515 189.785 85.5681 188.529 86.7299C188.085 86.7833 187.812 86.7853 187.367 86.7878L159.276 86.795L150.602 86.7898C149.091 86.7881 147.121 86.8913 145.669 86.7068C143.879 86.4791 144.098 84.7414 145.26 83.7159Z" fill="#C2CCD8"/>
<path d="M145.43 96.1199C149.291 96.0721 153.152 96.0986 157.012 96.1036C159.4 96.1065 160.249 97.5707 158.328 99.1876C155.915 99.3094 153.387 99.2117 150.894 99.24C149.722 99.2533 145.248 99.6444 144.51 98.4936C143.928 97.5855 144.587 96.692 145.43 96.1199Z" fill="#C2CCD8"/>
<path d="M124.042 135.32C128.409 134.077 135.685 135.242 140.429 134.847C141.213 134.782 142.515 134.886 143.295 134.998C144.764 135.225 146.181 135.708 147.479 136.424C150.675 138.188 153.04 141.124 154.064 144.599C154.307 145.453 154.46 146.329 154.518 147.215C154.702 149.917 154.524 153.613 154.564 156.39C154.594 158.43 154.667 162.66 154.364 164.477C154.096 166.019 153.548 167.502 152.746 168.852C150.909 171.966 147.909 174.243 144.391 175.19C141.925 175.84 137.874 175.665 135.174 175.662L125.703 175.657L124.072 175.751C122.19 182.168 114.148 182.013 112.687 175.696C109.095 175.638 105.504 175.635 101.912 175.688C96.07 175.744 91.2915 176.137 86.7769 171.651C83.7091 168.603 82.9068 165.723 82.8756 161.597L82.8755 153.912C82.8662 151.384 82.6981 147.324 83.3342 145.03C84.3366 141.407 86.7767 138.338 90.1005 136.519C93.2068 134.811 95.5957 134.769 99.0221 134.85C103.78 134.962 108.135 134.346 112.77 135.672C112.988 138.937 114.651 140.6 117.838 141.361C118.263 141.363 118.753 141.378 119.171 141.365C122.485 140.221 123.836 138.861 124.042 135.32Z" fill="#FDFDFD"/>
<path d="M124.041 135.32C128.408 134.077 135.685 135.242 140.428 134.847C141.213 134.782 142.514 134.886 143.295 134.998C144.763 135.225 146.18 135.708 147.478 136.424C150.674 138.188 153.039 141.124 154.063 144.599C154.307 145.453 154.459 146.329 154.517 147.215C154.701 149.917 154.523 153.613 154.563 156.39C154.593 158.43 154.666 162.66 154.363 164.477C154.095 166.019 153.547 167.502 152.745 168.852C150.908 171.966 147.908 174.243 144.39 175.19C141.924 175.84 137.873 175.665 135.173 175.662L125.702 175.657C125.127 175.664 124.908 175.678 124.336 175.573C124.061 175.211 124.049 173.894 123.879 173.246C123.516 171.826 122.318 170.404 120.987 169.775C120.299 169.451 119.624 169.444 118.914 168.98C120.673 168.897 123.048 168.964 124.841 168.966L135.864 168.978C139 168.981 142.533 169.537 145.208 167.556C149.16 164.628 147.613 159.381 147.887 155.087C148.042 152.654 147.907 149.346 147.724 146.913C147.55 144.599 145.178 142.23 142.948 141.703C141.359 141.314 139.107 141.468 137.441 141.469L125.897 141.493C124.413 141.499 120.671 141.576 119.318 141.386L119.17 141.365C122.484 140.221 123.836 138.861 124.041 135.32Z" fill="#84C0ED"/>
<path d="M82.876 161.598C85.0647 161.654 87.2543 161.67 89.4437 161.644C89.4077 163.821 89.6697 165.318 91.2652 166.945C92.7319 168.441 94.5797 168.923 96.629 168.948C100.865 169 105.103 168.969 109.339 168.96L115.214 168.936C116.027 168.929 118.142 168.874 118.915 168.981C119.626 169.445 120.301 169.452 120.988 169.776C122.32 170.405 123.517 171.827 123.881 173.247C124.051 173.895 124.062 175.212 124.337 175.574C124.909 175.679 125.129 175.664 125.703 175.657L124.072 175.752C122.19 182.169 114.149 182.014 112.687 175.697C109.096 175.639 105.504 175.636 101.913 175.688C96.0703 175.745 91.2919 176.138 86.7772 171.652C83.7095 168.604 82.9072 165.724 82.876 161.598Z" fill="#78B9F5"/>
<path d="M82.8755 153.913C82.8662 151.384 82.6981 147.325 83.3342 145.031C84.3366 141.407 86.7767 138.338 90.1005 136.52C93.2068 134.812 95.5957 134.77 99.0221 134.85C103.78 134.962 108.135 134.347 112.77 135.673C112.988 138.937 114.651 140.6 117.838 141.362C116.285 141.67 113.253 141.514 111.565 141.51L99.7563 141.483C96.1679 141.476 92.8941 141.089 90.5699 144.391C88.8522 146.832 89.4985 151.001 89.4418 153.944C87.5569 153.826 84.8225 153.911 82.8755 153.913Z" fill="#84C0ED"/>
<path d="M82.876 153.912C84.823 153.911 87.5574 153.825 89.4423 153.943L89.4439 161.643C87.2545 161.668 85.0648 161.653 82.8761 161.597L82.876 153.912Z" fill="#5795EB"/>
<path d="M97.0042 147.572C104.731 147.352 113.42 147.555 121.233 147.542L132.846 147.524C135.064 147.523 137.328 147.5 139.543 147.587C140.012 147.634 140.563 147.615 140.901 147.996C141.724 148.921 141.16 149.96 140.402 150.669C138.737 150.774 136.324 150.692 134.613 150.689L124.826 150.695L97.078 150.663C95.6997 149.536 95.6467 148.727 97.0042 147.572Z" fill="#C2CCD8"/>
<path d="M118.263 153.832L133.177 153.865C134.44 153.865 135.656 153.875 136.961 153.839C138.253 153.802 141.052 153.49 141.354 155.262C141.462 156.032 140.522 156.872 139.812 156.906C135.137 157.129 130.392 156.929 125.708 156.949C123.685 156.957 121.756 156.88 119.741 156.974L105.309 156.978C103.703 156.981 98.1743 157.26 96.6232 156.588C95.7828 156.224 95.7401 153.856 97.6784 153.856C99.5701 153.857 101.703 153.872 103.686 153.872C108.545 153.89 113.404 153.877 118.263 153.832Z" fill="#C2CCD8"/>
<path d="M96.956 159.862C100.948 159.64 105.157 159.943 109.162 159.788C111.661 159.692 113.043 160.99 110.909 162.922C107.397 163.113 103.699 162.871 100.165 162.975C99.2449 163.002 97.007 163.14 96.3921 162.386C95.6096 161.426 96.0946 160.552 96.956 159.862Z" fill="#C2CCD8"/>
<path d="M120.763 160.326C121.87 160.249 122.745 160.268 122.974 161.613C122.457 163.378 118.654 162.814 117.069 162.787C116.444 162.803 116.251 162.824 115.742 162.508C113.499 159.609 119.451 160.314 120.763 160.326Z" fill="#C2CCD8"/>
<path d="M179.238 150.135C179.345 149.143 179.26 148.099 179.295 147.098C179.379 144.74 180.411 142.402 181.774 140.496C183.714 137.784 186.846 135.545 190.204 135.005C192.576 134.623 205.259 134.608 207.42 135.142C209.282 135.602 210.773 136.569 212.301 137.665C213.414 138.704 214.666 139.92 215.304 141.32C215.869 140.221 216.624 139.386 217.433 138.47C219.012 137.24 220.41 136.077 222.353 135.428C223.177 135.161 224.03 134.991 224.895 134.921C226.032 134.821 227.277 134.837 228.42 134.849C229.809 134.881 231.231 134.824 232.617 134.867C234.759 134.935 237.039 134.715 239.157 134.976C245.503 135.756 250.699 141.303 250.985 147.627C251.025 148.499 251.001 149.331 250.964 150.2C248.867 150.245 247.914 150.158 246.297 151.756C245.764 152.283 244.852 153.485 244.414 153.884L244.423 157.607C246.147 160.373 247.721 161.151 250.985 161.106C250.963 165.403 250.196 168.476 246.943 171.687C242.731 175.844 238.333 175.734 232.946 175.713L226.641 175.717C221.348 175.673 218.305 173.911 215.256 169.671C214.917 170.454 214.2 171.343 213.614 171.959C211.408 174.264 208.367 175.603 205.159 175.683C202.747 175.744 200.169 175.658 197.801 175.724C192.157 175.881 187.959 175.92 183.595 171.722C180.305 168.555 179.449 165.51 179.372 161.158C182.357 161.731 185.271 159.882 185.988 156.96C186.196 156.111 186.202 155.226 186.004 154.374C185.305 151.365 182.287 149.474 179.238 150.135Z" fill="#FDFDFD"/>
<path d="M179.238 150.135C179.345 149.143 179.26 148.099 179.295 147.098C179.379 144.74 180.411 142.402 181.774 140.496C183.714 137.784 186.846 135.545 190.204 135.005C192.576 134.623 205.259 134.608 207.42 135.142C209.282 135.602 210.773 136.569 212.301 137.665C213.414 138.704 214.666 139.92 215.304 141.32L215.299 141.49L199.292 141.486C193.707 141.485 186.481 140.342 186.008 148.187C185.887 150.207 185.991 152.343 186.004 154.374C185.305 151.365 182.287 149.474 179.238 150.135Z" fill="#9561D4"/>
<path d="M185.989 156.959C186.013 160.168 185.324 164.064 187.619 166.615C190.586 169.911 196.705 168.942 200.972 168.915C205.786 168.891 210.598 168.905 215.412 168.96L215.257 169.67C214.917 170.453 214.2 171.342 213.614 171.958C211.409 174.263 208.367 175.602 205.16 175.682C202.748 175.743 200.169 175.657 197.802 175.723C192.158 175.88 187.96 175.919 183.595 171.721C180.305 168.554 179.45 165.509 179.373 161.157C182.358 161.73 185.272 159.881 185.989 156.959Z" fill="#9561D4"/>
<path d="M217.433 138.47C219.012 137.24 220.411 136.076 222.354 135.428C223.177 135.161 224.03 134.99 224.895 134.921C226.033 134.821 227.277 134.837 228.42 134.848C229.809 134.881 231.231 134.824 232.617 134.867C234.759 134.935 237.039 134.715 239.157 134.975C245.503 135.756 250.699 141.303 250.986 147.627C251.026 148.499 251.001 149.331 250.964 150.2C248.867 150.244 247.914 150.158 246.297 151.756C245.764 152.283 244.852 153.484 244.414 153.883C244.319 149.038 245.619 142.33 238.175 141.534C235.917 141.292 233.25 141.485 230.949 141.488L215.299 141.49L215.305 141.32C215.869 140.221 216.625 139.386 217.433 138.47Z" fill="#9561D4"/>
<path d="M244.424 157.605C246.148 160.371 247.722 161.15 250.986 161.105C250.964 165.402 250.197 168.475 246.944 171.685C242.731 175.842 238.334 175.732 232.947 175.711L226.642 175.716C221.349 175.672 218.306 173.91 215.257 169.669L215.412 168.96L235.965 168.978C244.845 168.927 244.479 164.716 244.424 157.605Z" fill="#9561D4"/>
<path d="M193.71 147.581C196.712 147.47 200.041 147.542 203.067 147.547L218.244 147.548L229.798 147.54C231.943 147.537 234.137 147.508 236.279 147.578C236.663 147.576 237.2 147.76 237.424 148.112C238.095 149.163 237.562 150.074 236.713 150.661C228.791 150.872 220.183 150.675 212.221 150.681L200.945 150.696C198.9 150.697 196.812 150.721 194.774 150.656C194.179 150.618 193.33 150.596 192.959 150.031C192.298 149.026 192.886 148.141 193.71 147.581Z" fill="#C2CCD8"/>
<path d="M193.479 153.908C195.88 153.789 198.369 153.883 200.779 153.879C212.356 153.86 223.933 153.897 235.51 153.878C237.88 153.874 238.56 155.497 236.738 156.898C235.997 157.037 233.788 156.985 232.912 156.982L225.444 156.957C215.405 156.992 205.338 156.995 195.295 156.96C194.523 156.895 193.502 157.074 192.99 156.348C192.302 155.372 192.69 154.602 193.479 153.908Z" fill="#C2CCD8"/>
<path d="M193.743 159.843C198.001 159.734 202.434 159.827 206.705 159.785C207.369 159.818 208.562 159.837 208.984 160.441C209.712 161.481 208.981 162.333 208.17 162.922C204.012 163.293 199.343 162.861 195.14 163.035C192.619 163.139 191.63 161.382 193.743 159.843Z" fill="#C2CCD8"/>
<path d="M164.571 116.136C166.18 116.893 168.057 116.843 169.623 116.002C171.038 117.448 172.743 119.283 174.213 120.635C178.744 120.609 183.414 120.525 187.937 120.594C187.919 122.364 187.939 124.289 187.87 126.046C175.132 126.175 162.116 125.997 149.344 126.011C150.255 124.33 150.246 122.307 149.319 120.634C152.877 120.555 156.533 120.73 160.093 120.554C161.604 119.1 163.097 117.628 164.571 116.136Z" fill="#F66597"/>
<path d="M201.083 120.579C202.909 120.611 204.735 120.621 206.561 120.608C209.787 120.594 213.094 120.205 215.513 122.704C216.36 123.59 216.956 124.68 217.242 125.866C217.626 127.452 217.486 136.356 217.433 138.47C216.625 139.385 215.87 140.22 215.305 141.319C214.667 139.919 213.415 138.703 212.302 137.664C212.426 136.79 212.34 132.54 212.339 131.419C210.568 129.654 208.785 127.793 206.978 126.08C204.288 126.016 201.605 126.148 198.915 126.039L201.066 126.035C201.115 124.217 201.12 122.398 201.083 120.579Z" fill="#F66597"/>
<path d="M116.593 130.576C116.573 129.64 116.555 128.686 116.567 127.763C116.628 123.17 119.956 120.526 124.462 120.614C127.03 120.664 129.653 120.588 132.224 120.612C134.596 120.634 136.942 120.571 139.306 120.645C138.396 122.295 138.376 124.285 139.254 125.952C136.299 126.15 132.938 125.922 129.947 125.992C129.386 126.005 127.264 125.961 126.901 126.035C125.089 127.83 123.445 129.53 121.411 131.087C119.312 130.301 118.847 130.195 116.593 130.576Z" fill="#F66597"/>
<path d="M139.307 120.644C140.306 118.833 142.224 117.705 144.311 117.703C146.397 117.701 148.317 118.825 149.32 120.635C150.246 122.307 150.256 124.33 149.345 126.011C148.345 127.855 146.397 129.001 144.281 128.988C142.166 128.976 140.232 127.807 139.255 125.951C138.377 124.284 138.397 122.294 139.307 120.644Z" fill="#A55E3F"/>
<path d="M179.238 150.134C182.287 149.473 185.305 151.364 186.004 154.373C186.202 155.224 186.196 156.11 185.988 156.959C185.271 159.881 182.357 161.729 179.372 161.157C176.722 160.649 174.798 158.37 174.765 155.7C174.734 153.03 176.601 150.705 179.238 150.134Z" fill="#080808"/>
<path d="M250.965 150.199C252.763 150.751 254.02 151.389 254.952 153.127C255.638 154.402 255.77 155.897 255.32 157.271C254.858 158.699 253.83 159.882 252.47 160.547C252.013 160.775 251.475 160.949 250.986 161.105C247.722 161.15 246.148 160.372 244.424 157.606L244.415 153.883C244.853 153.484 245.765 152.282 246.298 151.756C247.915 150.157 248.868 150.244 250.965 150.199Z" fill="#080808"/>
<path d="M116.594 130.575C118.848 130.193 119.313 130.3 121.411 131.086C122.995 132.468 123.573 133.221 124.042 135.32C123.837 138.861 122.485 140.221 119.171 141.365C118.753 141.378 118.263 141.363 117.838 141.361C114.651 140.6 112.988 138.936 112.771 135.672C112.985 133.13 114.367 131.678 116.594 130.575Z" fill="#5795EB"/>
<path d="M187.937 120.596C192.141 120.651 196.879 120.688 201.083 120.58C201.12 122.399 201.114 124.218 201.066 126.036L198.915 126.04C195.233 126.023 191.552 126.025 187.87 126.047C187.939 124.29 187.919 122.366 187.937 120.596Z" fill="#E59CC7"/>
</g>
<defs>
<clipPath id="clip0_2407_12459">
<rect width="334" height="250" fill="white"/>
</clipPath>
</defs>
</svg>
