<svg width="334" height="250" viewBox="0 0 334 250" fill="none" xmlns="http://www.w3.org/2000/svg">
<g clip-path="url(#clip0_2407_12671)">

<path d="M232.515 55.0664H116.733V217.161H208.433L232.515 193.078V55.0664Z" fill="#EBEBEB"/>
<path d="M149.762 96.8175C171.597 96.6857 193.664 96.7683 215.494 96.845C218.878 96.857 222.394 99.1203 217.188 100.26L216.526 100.277C196.118 100.765 173.55 100.055 152.988 100.332C145.523 100.433 144.948 98.6765 149.762 96.8175Z" fill="#747373"/>
<path d="M176.978 70.8938C184.417 70.8643 197.209 70.5955 203.95 71.2326C208.793 71.6899 209.223 72.9855 206.394 73.8496C203.386 74.302 201.354 74.2853 197.549 74.3927C190.88 74.4456 175.635 74.8037 171.06 73.9985C164.06 72.7668 167.668 71.1573 176.978 70.8938Z" fill="#B1B0B0"/>
<path d="M135.882 96.7635C138.705 96.5976 140.784 99.1903 137.767 100.235C134.555 100.616 132.927 98.6839 135.882 96.7635Z" fill="#B1B0B0"/>
<path d="M149.762 120.899C171.597 120.768 193.664 120.85 215.494 120.927C218.878 120.939 222.394 123.202 217.188 124.342L216.526 124.359C196.118 124.847 173.55 124.137 152.988 124.414C145.523 124.515 144.948 122.759 149.762 120.899Z" fill="#747373"/>
<path d="M135.882 120.67C138.705 120.504 140.784 123.097 137.767 124.142C134.555 124.522 132.927 122.59 135.882 120.67Z" fill="#B1B0B0"/>
<path d="M149.762 144.982C171.597 144.85 193.664 144.932 215.494 145.009C218.878 145.021 222.394 147.284 217.188 148.424L216.526 148.441C196.118 148.929 173.55 148.219 152.988 148.496C145.523 148.597 144.948 146.841 149.762 144.982Z" fill="#747373"/>
<path d="M135.882 144.576C138.705 144.41 140.784 147.003 137.767 148.048C134.555 148.428 132.927 146.496 135.882 144.576Z" fill="#B1B0B0"/>
<path d="M149.762 169.066C171.597 168.934 193.664 169.016 215.494 169.093C218.878 169.105 222.394 171.368 217.188 172.508L216.526 172.525C196.118 173.013 173.55 172.303 152.988 172.58C145.523 172.681 144.948 170.925 149.762 169.066Z" fill="#747373"/>
<path d="M135.882 168.48C138.705 168.314 140.784 170.907 137.767 171.952C134.555 172.333 132.927 170.401 135.882 168.48Z" fill="#B1B0B0"/>
<path d="M149.762 193.148C171.597 193.016 193.664 193.098 215.494 193.175C218.878 193.187 222.394 195.45 217.188 196.59L216.526 196.607C196.118 197.095 173.55 196.385 152.988 196.662C145.523 196.763 144.948 195.007 149.762 193.148Z" fill="#747373"/>
<path d="M135.882 192.387C138.705 192.221 140.784 194.813 137.767 195.858C134.555 196.239 132.927 194.307 135.882 192.387Z" fill="#B1B0B0"/>
<path d="M152.728 70.8321C155.013 70.8222 155.861 73.2629 153.397 74.21C150.582 74.0758 150.137 71.6197 152.728 70.8321Z" fill="#092125"/>
<path d="M135.847 70.8164C138.022 70.9056 139.189 72.6786 136.798 74.1335C134.032 74.2018 133.422 71.957 135.847 70.8164Z" fill="#092125"/>
<path d="M208.433 198.636V217.161L232.515 193.078H213.99C210.921 193.078 208.433 195.566 208.433 198.636Z" fill="#D0D0D0"/>
<path fill-rule="evenodd" clip-rule="evenodd" d="M126.049 218.656C131.044 212.766 134.037 205.261 134.037 197.087C134.037 178.161 117.992 162.818 98.2009 162.818C78.4093 162.818 62.3652 178.161 62.3652 197.087C62.3652 205.261 65.358 212.766 70.3524 218.656H126.049Z" fill="#3FC399"/>
<rect x="88.9795" y="192.789" width="20.4606" height="23.7342" fill="#D89C86"/>
<path d="M88.9795 192.789H109.44V204.842L89.1841 200.843L88.9795 192.789Z" fill="#AC6A54"/>
<path fill-rule="evenodd" clip-rule="evenodd" d="M110.551 193.709L110.573 193.691C110.569 193.694 110.566 193.697 110.562 193.7C110.558 193.703 110.554 193.706 110.551 193.709ZM87.9055 193.709L87.8834 193.691C87.8907 193.697 87.8981 193.703 87.9055 193.709ZM94.1589 193.379L92.7079 190.482H105.748H105.767L105.748 190.519L104.299 193.385C104.045 193.886 103.531 194.202 102.968 194.202H95.4919C94.9274 194.202 94.4114 193.883 94.1589 193.379Z" fill="#121212"/>
<path fill-rule="evenodd" clip-rule="evenodd" d="M92.7079 190.482L94.1589 193.379C94.4114 193.883 94.9274 194.202 95.4919 194.202H102.968C103.531 194.202 104.045 193.886 104.299 193.385L105.748 190.519L105.767 190.482H105.748H92.7079Z" fill="#121212"/>
<path fill-rule="evenodd" clip-rule="evenodd" d="M94.1589 193.379C94.4114 193.883 94.9274 194.202 95.4919 194.202H102.968C103.531 194.202 104.045 193.886 104.299 193.385L105.748 190.519V190.482H92.7079L94.1589 193.379Z" fill="#121212"/>
<path d="M92.7079 190.482H105.748H105.767L105.748 190.519L104.299 193.385C104.045 193.886 103.531 194.202 102.968 194.202H95.4919C94.9274 194.202 94.4114 193.883 94.1589 193.379L92.7079 190.482Z" fill="#121212"/>
<path d="M111.337 192.044V186.762L107.611 188.622L107.611 190.854L105.748 189.998V188.919C105.748 187.728 104.781 186.762 103.587 186.762H94.8689C93.6754 186.762 92.7079 187.728 92.7079 188.919V189.998L90.845 190.854V188.622L87.1191 186.762V192.044C87.1191 192.05 87.1192 192.055 87.1192 192.06C87.124 192.713 87.4189 193.297 87.8816 193.689L87.8834 193.691L87.9055 193.709C89.1929 194.784 90.8346 196.054 90.845 196.062L90.845 197.587C90.845 198.779 91.8125 199.745 93.0059 199.745H105.45C106.644 199.745 107.611 198.779 107.611 197.587L107.611 196.062C107.611 196.062 109.259 194.787 110.551 193.709L110.573 193.691L110.574 193.689C111.012 193.318 111.299 192.776 111.334 192.167C111.336 192.126 111.337 192.085 111.337 192.044ZM94.1589 193.379L92.7079 190.482H105.748H105.767L105.748 190.519L104.299 193.385C104.045 193.886 103.531 194.202 102.968 194.202H95.4919C94.9274 194.202 94.4114 193.883 94.1589 193.379Z" fill="#121212"/>
<path fill-rule="evenodd" clip-rule="evenodd" d="M94.1851 193.38L92.7363 190.482H105.757H105.775L105.757 190.519L104.309 193.385C104.056 193.886 103.543 194.203 102.981 194.203H95.5161C94.9525 194.203 94.4372 193.884 94.1851 193.38Z" fill="#D89C86"/>
<path fill-rule="evenodd" clip-rule="evenodd" d="M92.7363 190.482L94.1851 193.38C94.4372 193.884 94.9525 194.203 95.5161 194.203H102.981C103.543 194.203 104.056 193.886 104.309 193.385L105.757 190.519L105.775 190.482H105.757H92.7363Z" fill="#D89C86"/>
<path fill-rule="evenodd" clip-rule="evenodd" d="M94.1851 193.38C94.4372 193.884 94.9525 194.203 95.5161 194.203H102.981C103.543 194.203 104.056 193.886 104.309 193.385L105.757 190.519V190.482H92.7363L94.1851 193.38Z" fill="#D89C86"/>
<path d="M92.7363 190.482H105.757H105.775L105.757 190.519L104.309 193.385C104.056 193.886 103.543 194.203 102.981 194.203H95.5161C94.9525 194.203 94.4372 193.884 94.1851 193.38L92.7363 190.482Z" fill="#D89C86"/>
<path d="M94.1851 193.38L92.7363 190.482H105.757H105.775L105.757 190.519L104.309 193.385C104.056 193.886 103.543 194.203 102.981 194.203H95.5161C94.9525 194.203 94.4372 193.884 94.1851 193.38Z" fill="#D89C86"/>
<path fill-rule="evenodd" clip-rule="evenodd" d="M89.2801 164.441C88.0866 164.441 87.1191 165.407 87.1191 166.599V186.762L90.845 188.622V190.854L92.7079 189.998V188.92C92.7079 187.728 93.6754 186.762 94.8689 186.762H103.587C104.781 186.762 105.748 187.728 105.748 188.92V189.998L107.611 190.854L107.611 189.56L107.611 188.622L111.337 186.762V166.599C111.337 165.407 110.369 164.441 109.176 164.441H89.2801Z" fill="#D89C86"/>
<path d="M109.347 162.581C109.267 162.189 109.138 161.815 108.967 161.465C108.21 159.923 106.624 158.861 104.79 158.861H83.3991C83.3991 161.752 84.7183 164.335 86.7875 166.041H81.5391C81.5391 169.855 83.8345 173.132 87.1192 174.568V178.392C87.1192 178.905 87.5356 179.322 88.0492 179.322C88.5629 179.322 88.9793 178.905 88.9793 178.392V175.155C89.5803 175.277 90.2023 175.341 90.8393 175.341H103.761C103.761 175.341 100.245 173.558 99.2749 171.882H109.44V174.606V178.392C109.44 178.905 109.856 179.322 110.37 179.322C110.883 179.322 111.3 178.905 111.3 178.392V173.083V171.789C111.692 171.709 112.066 171.58 112.416 171.409C113.958 170.652 115.02 169.066 115.02 167.232C115.02 164.758 113.088 162.735 110.651 162.59C110.558 162.584 110.464 162.581 110.37 162.581H109.347Z" fill="#121212"/>
<path d="M87.1562 181.182H88.0863C88.5999 181.182 89.0163 181.598 89.0163 182.112V183.972C89.0163 184.485 89.4327 184.902 89.9463 184.902H95.8817C96.234 184.902 96.556 184.703 96.7136 184.388L98.0595 181.696C98.217 181.381 98.5391 181.182 98.8913 181.182H99.6018C99.9541 181.182 100.276 181.381 100.434 181.696L101.78 184.388C101.937 184.703 102.259 184.902 102.611 184.902H108.547C109.06 184.902 109.477 184.485 109.477 183.972V182.112C109.477 181.598 109.893 181.182 110.407 181.182H111.337" stroke="#767676" stroke-width="0.74402"/>
<path d="M88.9795 180.327C88.9795 179.772 89.4292 179.322 89.9839 179.322H97.7775C98.0549 179.322 98.2797 179.547 98.2797 179.824V179.824C98.2797 180.102 98.0549 180.327 97.7775 180.327H88.9795V180.327Z" fill="#121212"/>
<path d="M109.439 180.327C109.439 179.772 108.99 179.322 108.435 179.322H100.641C100.364 179.322 100.139 179.547 100.139 179.824V179.824C100.139 180.102 100.364 180.327 100.641 180.327H109.439V180.327Z" fill="#121212"/>
<circle cx="93.6292" cy="182.112" r="0.930025" fill="#121212"/>
<circle cx="104.788" cy="182.112" r="0.930025" fill="#121212"/>
<path d="M99.2094 182.744L101.078 185.981H97.3408L99.2094 182.744Z" fill="#AC6A54"/>
<path d="M95.4893 191.859C95.4893 192.373 96.0443 192.789 96.7293 192.789H101.689C102.374 192.789 102.929 192.373 102.929 191.859H95.4893Z" fill="#AC6A54"/>
<path fill-rule="evenodd" clip-rule="evenodd" d="M92.7634 208.626C91.2899 207.695 90.0313 206.455 89.0791 204.997C89.0455 204.946 89.0123 204.894 88.9795 204.842V208.626V213.908V216.364V219.786H109.44V216.364V213.908V208.626V205.172V204.842C109.378 204.94 109.315 205.037 109.251 205.133C108.31 206.532 107.084 207.724 105.656 208.626C103.79 209.804 101.58 210.486 99.2098 210.486C96.8399 210.486 94.6293 209.804 92.7634 208.626Z" fill="#FEFEFE"/>
<path fill-rule="evenodd" clip-rule="evenodd" d="M79.6792 208.635L81.4732 206.482L71.975 208.326C71.0482 208.505 70.3789 209.317 70.3789 210.261V219.796H81.4239L79.9954 213.732L85.7154 213.657L79.6792 208.635Z" fill="#9B9B9B"/>
<path fill-rule="evenodd" clip-rule="evenodd" d="M126.18 210.242C126.18 209.306 125.523 208.5 124.607 208.311L117.195 206.781L118.74 208.635L112.704 213.657L118.424 213.732L116.995 219.796H126.18V210.242Z" fill="#9B9B9B"/>
<path d="M81.4727 206.484L79.6787 208.637L85.7149 213.659L79.9949 213.733L81.4234 219.797H88.979V216.375V213.919V208.637V204.853V197.477L81.4727 206.484Z" fill="#FF9B94"/>
<path d="M116.946 206.484L118.74 208.637L112.704 213.659L118.424 213.733L116.996 219.797H109.44V216.375V213.919V208.637V204.853V197.477L116.946 206.484Z" fill="#FF9B94"/>
<rect x="83.3604" y="181.182" width="3.7201" height="7.4402" rx="1.86005" fill="#D89C86"/>
<rect width="3.7201" height="7.4402" rx="1.86005" transform="matrix(-1 0 0 1 114.982 181.182)" fill="#D89C86"/>
<rect x="84.5889" y="182.408" width="2.49247" height="4.98494" rx="1.24623" fill="#AC6A54"/>
<rect width="2.49247" height="4.98494" rx="1.24623" transform="matrix(-1 0 0 1 113.755 182.408)" fill="#AC6A54"/>
<path fill-rule="evenodd" clip-rule="evenodd" d="M269.384 120.808C274.06 115.223 276.863 108.107 276.863 100.357C276.863 82.412 261.84 67.8652 243.308 67.8652C224.777 67.8652 209.754 82.412 209.754 100.357C209.754 108.107 212.556 115.223 217.233 120.808H269.384Z" fill="#9463D3"/>
<path d="M261.376 108.618H261.365H229.35H229.339C224.54 108.612 220.651 104.839 220.651 100.187C220.651 99.2387 220.813 98.3274 221.11 97.477L226.297 79.7162L227.765 74.6886L227.775 74.7097C229.041 68.2344 234.91 63.3379 241.959 63.3379C246.223 63.3379 250.056 65.1294 252.699 67.9782C253.152 67.9043 253.618 67.8659 254.093 67.8659C258.576 67.8659 262.233 71.2891 262.434 75.5853L263.061 80.6689L265.866 103.444C265.909 103.687 265.931 103.937 265.931 104.192C265.931 106.633 263.893 108.612 261.376 108.618Z" fill="#121212"/>
<path d="M229.341 120.809H257.258L257.258 115.95L242.899 111.439L229.341 115.95V120.809Z" fill="#FFC99D"/>
<path d="M217.168 120.808H237.788L229.359 115.549L217.168 119.067V120.808Z" fill="#FFC800"/>
<path d="M269.45 120.808H248.83L257.259 115.549L269.45 119.067V120.808Z" fill="#FFC800"/>
<path d="M258.964 91.212C258.964 91.212 258.965 91.2122 258.965 91.2124C258.964 91.5225 258.883 91.8141 258.741 92.0661C258.441 92.597 257.874 92.9553 257.222 92.9553C256.57 92.9553 256.002 92.597 255.703 92.0661C255.623 91.9229 255.561 91.7667 255.524 91.6014C255.502 91.5083 255.488 91.412 255.482 91.3136V92.0661C255.482 93.5121 256.652 94.6842 258.095 94.6842C259.537 94.6842 260.707 93.5121 260.707 92.0661V88.5943C260.707 87.1487 259.537 85.9766 258.095 85.9766C256.652 85.9766 255.482 87.1487 255.482 88.5943V89.4502C255.483 89.3206 255.498 89.1942 255.526 89.0726C255.565 88.9025 255.628 88.7417 255.712 88.5943C256.013 88.0707 256.577 87.7177 257.223 87.7177C257.869 87.7177 258.433 88.0707 258.734 88.5943C258.878 88.8468 258.962 89.1388 258.964 89.4502V91.2117C258.964 91.2118 258.964 91.212 258.964 91.212Z" fill="#D89C86"/>
<path d="M227.63 91.212C227.63 91.212 227.63 91.2122 227.63 91.2124C227.631 91.5225 227.712 91.8141 227.856 92.0661C228.157 92.597 228.728 92.9553 229.384 92.9553C230.041 92.9553 230.612 92.597 230.913 92.0661C230.994 91.9229 231.056 91.7667 231.094 91.6014C231.116 91.5083 231.13 91.412 231.135 91.3136V92.0661C231.135 93.5121 229.958 94.6842 228.506 94.6842C227.053 94.6842 225.876 93.5121 225.876 92.0661V88.5943C225.876 87.1487 227.053 85.9766 228.506 85.9766C229.958 85.9766 231.135 87.1487 231.135 88.5943V89.4502C231.135 89.3206 231.12 89.1942 231.092 89.0726C231.053 88.9025 230.989 88.7417 230.904 88.5943C230.601 88.0707 230.034 87.7177 229.383 87.7177C228.733 87.7177 228.165 88.0707 227.862 88.5943C227.717 88.8468 227.633 89.1388 227.631 89.4502V91.2116C227.631 91.2118 227.631 91.212 227.63 91.212Z" fill="#D89C86"/>
<path d="M255.482 89.4611C255.482 89.4611 255.482 89.4612 255.482 89.4614V91.3425C255.487 91.4406 255.501 91.5367 255.523 91.6296C255.561 91.7945 255.622 91.9503 255.703 92.0932C256.002 92.6228 256.57 92.9801 257.222 92.9801C257.873 92.9801 258.442 92.6228 258.741 92.0932C258.883 91.8416 258.964 91.5158 258.965 91.2063V91.2032C258.965 91.1561 258.963 91.1094 258.959 91.0633C258.959 91.0613 258.96 91.0595 258.962 91.0588C258.964 91.0582 258.965 91.0567 258.965 91.0549V89.598C258.965 89.5965 258.965 89.5955 258.963 89.595C258.962 89.5944 258.96 89.5925 258.96 89.5907C258.963 89.548 258.965 89.5047 258.965 89.4611C258.965 89.4569 258.965 89.453 258.965 89.4488C258.963 89.1383 258.879 88.8469 258.735 88.5951C258.434 88.0728 257.87 87.7207 257.224 87.7207C256.577 87.7207 256.013 88.0728 255.713 88.5951C255.628 88.7421 255.565 88.9025 255.526 89.0723C255.498 89.1935 255.483 89.3196 255.482 89.4488C255.482 89.4529 255.482 89.4567 255.482 89.4607C255.482 89.4609 255.482 89.4611 255.482 89.4611Z" fill="#AC6A54"/>
<path d="M231.135 89.4611C231.135 89.4611 231.135 89.4612 231.135 89.4614V91.3425C231.129 91.4406 231.115 91.5367 231.093 91.6296C231.055 91.7945 230.993 91.9503 230.912 92.0932C230.61 92.6228 230.036 92.9801 229.378 92.9801C228.72 92.9801 228.146 92.6228 227.843 92.0932C227.7 91.8416 227.618 91.5507 227.617 91.2412V91.238C227.617 91.1909 227.619 91.111 227.623 91.0633C227.623 91.0613 227.622 91.0595 227.62 91.0588C227.618 91.0582 227.617 91.0567 227.617 91.0549V89.598C227.617 89.5965 227.617 89.5955 227.619 89.595C227.62 89.5944 227.622 89.5925 227.622 89.5907C227.619 89.548 227.617 89.5047 227.617 89.4611C227.617 89.4569 227.617 89.453 227.617 89.4488C227.619 89.1383 227.704 88.8469 227.85 88.5951C228.153 88.0728 228.723 87.7207 229.376 87.7207C230.029 87.7207 230.598 88.0728 230.902 88.5951C230.987 88.7421 231.051 88.9025 231.091 89.0723C231.118 89.1935 231.134 89.3196 231.134 89.4488C231.134 89.4529 231.134 89.4567 231.134 89.4607C231.134 89.4609 231.135 89.4611 231.135 89.4611Z" fill="#AC6A54"/>
<path fill-rule="evenodd" clip-rule="evenodd" d="M238.993 104.947L238.172 104.077V117.324H248.516V103.862L247.411 104.993C246.39 106.147 244.892 106.875 243.222 106.875C241.53 106.875 240.014 106.127 238.993 104.947Z" fill="#FFC99D"/>
<path d="M252.592 99.6909L253.722 98.5203C254.518 97.5148 255.083 96.3215 255.337 95.0189L256.576 90.0219C256.997 88.7054 257.224 85.5621 257.224 84.1077C257.224 76.4834 250.986 70.3027 243.292 70.3027C235.597 70.3027 229.359 76.4834 229.359 84.1077C229.359 85.6918 229.629 88.9551 230.124 90.3721L231.327 94.898C231.593 96.3845 232.262 97.7331 233.218 98.8293L238.172 104.077L238.993 104.947C240.014 106.127 241.53 106.875 243.222 106.875C244.892 106.875 246.39 106.147 247.411 104.993L248.516 103.862L252.592 99.6909Z" fill="#FFC99D"/>
<path fill-rule="evenodd" clip-rule="evenodd" d="M238.992 104.948L238.171 104.078V107.398L248.516 110.594V103.863L247.41 104.995C246.389 106.148 244.891 106.876 243.222 106.876C241.529 106.876 240.014 106.128 238.992 104.948Z" fill="#D89C86"/>
<path d="M241.62 87.7371H244.998M241.62 87.7719C241.62 90.6285 239.273 92.9443 236.378 92.9443C233.483 92.9443 231.136 90.6285 231.136 87.7719C231.136 84.9153 233.483 82.5996 236.378 82.5996C239.273 82.5996 241.62 84.9153 241.62 87.7719ZM255.482 87.7719C255.482 90.6285 253.135 92.9443 250.24 92.9443C247.345 92.9443 244.998 90.6285 244.998 87.7719C244.998 84.9153 247.345 82.5996 250.24 82.5996C253.135 82.5996 255.482 84.9153 255.482 87.7719Z" stroke="#F05A8C" stroke-width="0.522458"/>
<path d="M232.842 82.3555C232.842 81.8938 233.216 81.5195 233.678 81.5195H241.131C241.362 81.5195 241.549 81.7067 241.549 81.9375V81.9375C241.549 82.1683 241.362 82.3555 241.131 82.3555H232.842V82.3555Z" fill="#121212"/>
<path d="M253.74 81.9375C253.74 81.7067 253.553 81.5195 253.322 81.5195H245.589C245.282 81.5195 245.033 81.7684 245.033 82.0755V82.3555H253.322C253.553 82.3555 253.74 82.1683 253.74 81.9375Z" fill="#121212"/>
<path d="M239.809 98.3441C239.809 98.8251 240.328 99.2148 240.97 99.2148H245.614C246.255 99.2148 246.775 98.8251 246.775 98.3441H239.809Z" fill="#AC6A54"/>
<path d="M245.033 92.9427C245.033 93.4046 244.849 93.8475 244.523 94.1741C244.196 94.5007 243.753 94.6842 243.291 94.6842C242.829 94.6842 242.386 94.5007 242.06 94.1741C241.733 93.8475 241.55 93.4046 241.55 92.9427L243.291 92.9427H245.033Z" fill="#D89C86"/>
<path d="M242.925 101.27H243.795C244.036 101.27 244.231 101.465 244.231 101.705C244.231 101.945 244.036 102.14 243.795 102.14H242.925C242.684 102.14 242.489 101.945 242.489 101.705C242.489 101.465 242.684 101.27 242.925 101.27Z" fill="#D89C86"/>
<circle cx="236.326" cy="87.7191" r="1.21907" fill="#121212"/>
<circle cx="250.257" cy="87.7191" r="1.21907" fill="#121212"/>
<path d="M259.905 76.1377C260.092 78.7136 260.497 82.5988 258.495 82.5988C252.983 82.5988 255.621 73.6648 246.426 73.6648C246.426 68.192 254.66 67.1669 257.955 70.4778C259.604 72.1349 259.736 73.8059 259.905 76.1377Z" fill="#121212"/>
<path d="M257.085 75.9482C257.053 75.5766 256.977 75.216 256.863 74.8706C256.16 72.7423 253.988 71.1916 251.417 71.1916C248.376 71.1916 245.888 73.4381 245.735 76.168C245.586 78.1632 243.873 79.7425 241.782 79.7425C241.72 79.7425 241.659 79.7412 241.598 79.7385L241.601 79.7425H230.129C230.129 79.7425 229.481 85.6991 229.446 86.1519C228.888 85.9255 228.236 85.9277 227.739 86.092L224.482 85.9429L227.765 74.6981L227.774 74.7192C229.04 68.2385 234.906 63.3379 241.951 63.3379C246.212 63.3379 250.042 65.1309 252.684 67.9822C253.137 67.9082 253.603 67.8697 254.078 67.8697C258.557 67.8697 262.213 71.2958 262.414 75.5956L263.736 86.1519H259.034C258.407 85.9255 257.902 85.9081 257.136 86.1519L257.102 76.7302V76.3591C257.102 76.2208 257.096 76.0838 257.085 75.9482Z" fill="#F05A8C"/>
<path d="M177.495 143.632C173.657 143.193 169.858 143.008 166.019 142.658C163.008 142.572 156.083 142.768 153.597 142.087L133.668 130.532C130.263 128.567 126.471 126.247 123.045 124.448C109.743 116.517 96.1464 108.99 82.7861 101.151C80.9396 100.068 79.0148 98.9326 77.1377 97.9094L80.3766 92.2919C81.8726 89.7806 83.3402 87.2529 84.7792 84.7087C100.053 93.5296 115.906 102.404 130.98 111.467C134.527 113.557 138.819 116.148 142.465 117.96C146.449 119.298 149.484 118.735 153.276 117.486L153.554 117.337C155.924 118.824 162.841 122.491 164.386 123.958C165.464 124.985 169.996 132.369 171.12 134.108C173.172 137.205 175.349 140.619 177.495 143.632Z" fill="#FBCB04"/>
<path d="M153.597 142.088L133.667 130.533C130.262 128.568 126.47 126.248 123.044 124.449C109.743 116.518 96.1459 108.991 82.7856 101.152C80.9391 100.069 79.0143 98.9337 77.1372 97.9105L80.3761 92.293L153.157 134.359C151.79 137.078 152.471 139.497 153.597 142.088Z" fill="#E54645"/>
<path d="M177.492 143.634C173.654 143.195 169.855 143.01 166.016 142.66C163.006 142.574 156.08 142.77 153.594 142.089C152.468 139.498 151.788 137.079 153.155 134.36C154.581 133.837 156.154 132.7 157.569 131.984C157.521 131.274 157.399 127.181 157.34 126.847C153.698 124.735 145.473 120.264 142.462 117.962C146.446 119.3 149.482 118.737 153.273 117.488L153.551 117.339C155.921 118.826 162.531 122.52 164.542 123.69C165.62 124.717 169.993 132.371 171.117 134.11C173.169 137.207 175.346 140.621 177.492 143.634Z" fill="#F5C6C4"/>
<path d="M177.493 143.633C173.656 143.194 169.856 143.009 166.017 142.659C165.993 139.486 168.013 135.287 171.118 134.108C173.171 137.206 175.348 140.619 177.493 143.633Z" fill="#2B89D2"/>
<path d="M80.3747 92.2921L77.1358 97.9096L72.2768 95.1236C68.3114 92.8777 62.6657 90.5247 61.4606 85.7528C60.2562 80.9813 61.6436 76.6932 65.7466 73.8714C67.8209 74.4646 77.5755 80.551 79.9572 81.9309L84.7772 84.7089C83.3383 87.2531 81.8707 89.7808 80.3747 92.2921Z" fill="#2B89D2"/>
<path d="M81.948 90.203L77.4158 98.0617L71.8248 94.8608L82.5584 76.3965L88.103 79.5908C86.0841 83.1472 84.0324 86.6845 81.948 90.203Z" fill="#3FC399"/>
<path d="M72.076 95.0475L82.7754 76.5156L77.1812 73.2858C72.0638 70.3313 65.5201 72.0846 62.5656 77.2021C59.611 82.3195 61.3644 88.8631 66.4818 91.8177L72.076 95.0475Z" fill="#2B89D2"/>
<path d="M163.724 123.209L144.476 112.144C141.072 110.179 137.166 108.055 133.895 105.987C120.376 98.4333 107.06 90.4212 93.5904 82.7704C91.7294 81.7129 89.7836 80.6136 87.9589 79.4997L84.7135 85.1134L157.534 127.111C159.206 124.567 160.916 123.529 163.724 123.209Z" fill="#E54645"/>
<circle cx="182.893" cy="34.7258" r="4.52272" fill="#2B89D2"/>
<circle cx="67.8899" cy="122.197" r="4.52272" fill="#F05A8C"/>
<circle cx="257.223" cy="189.62" r="4.52272" fill="#FBCB04"/>
</g>
<defs>
<clipPath id="clip0_2407_12671">
<rect width="334" height="250" fill="white"/>
</clipPath>
</defs>
</svg>
