<svg width="1811" height="830" viewBox="0 0 1811 830" fill="none" xmlns="http://www.w3.org/2000/svg">
<path d="M0 215.659C53.3419 183.559 157.238 151.002 282.572 176.055C198.691 60.0689 67.3154 11.9355 0 0.804688L0 215.659Z" fill="#865BA9"/>
<path d="M1089.43 692.943C1089.38 692.901 1089.3 692.902 1089.25 692.86C1091.24 694.816 1093.25 696.793 1095.26 698.794C1093.3 696.825 1091.37 694.858 1089.43 692.943Z" fill="#D9D9D9"/>
<path d="M1673.42 324.107C1594.45 422.375 1528.17 453.581 1482.7 456.999C1495.07 464.73 1507.31 471.859 1519.42 478.424C1572.02 430.051 1688.22 358.854 1810.02 392.727V194.906C1774.74 215.597 1729.1 254.814 1673.42 324.107Z" fill="#49C5D5"/>
<path d="M1288.12 288.182C1295.3 295.441 1290.67 288.69 1297.75 296.785C1359.56 367.421 1422.49 419.348 1482.7 457.001C1528.17 453.582 1594.45 422.376 1673.42 324.107C1729.1 254.816 1774.74 215.598 1810.02 194.908V0C1709.66 6.01483 1633.8 71.2508 1519.74 201.163C1436.02 296.504 1346.58 307.469 1288.12 288.182Z" fill="#865BA9"/>
<path fill-rule="evenodd" clip-rule="evenodd" d="M1524.59 481.198L1521.25 479.414L1519.41 478.42C1572.02 430.046 1688.22 358.85 1810.02 392.723V543.983C1754.54 553.568 1650.66 546.416 1531.11 484.613C1528.94 483.493 1526.77 482.355 1524.59 481.198Z" fill="#865BA9"/>
<path d="M1089.43 692.943C1089.38 692.901 1089.3 692.902 1089.25 692.86C1091.24 694.816 1093.25 696.793 1095.26 698.794C1093.3 696.825 1091.37 694.858 1089.43 692.943Z" fill="#D9D9D9"/>
<path d="M1094.6 698.124C1094.23 697.751 1093.86 697.379 1093.49 697.007C1093.86 697.375 1094.23 697.75 1094.6 698.124C1094.82 698.348 1095.04 698.572 1095.27 698.797C1095.04 698.574 1094.82 698.349 1094.6 698.124Z" fill="#D9D9D9"/>
<path fill-rule="evenodd" clip-rule="evenodd" d="M1093.49 697.006C1092.19 695.698 1090.9 694.401 1089.61 693.125C1090.29 693.796 1090.96 694.47 1091.64 695.152C1092.25 695.77 1092.86 696.391 1093.49 697.006Z" fill="#D9D9D9"/>
<path fill-rule="evenodd" clip-rule="evenodd" d="M0 437.719L0 665.375C42.479 664.712 134.234 677.919 211.738 737.34C314.192 815.888 467.873 891.021 693.272 751C873.406 639.098 1032.19 665.569 1089.25 692.86C958.104 563.987 880.477 531.411 844.891 531.28C678.46 713.627 538.877 736.751 365.419 593.904C266.684 512.591 151.83 469.921 70.1903 450.337C42.2422 443.632 18.1829 439.635 0 437.719ZM1093.49 697.005C1092.13 695.636 1090.78 694.277 1089.43 692.943C1090.22 693.727 1091.01 694.524 1091.81 695.323L1093.49 697.005Z" fill="#F36275"/>
<path d="M543.742 313.828L662.768 417.226C693.961 393.352 718.924 364.582 734.252 341.184C735.39 339.448 736.547 337.716 737.724 335.985C739.972 332.685 742.29 329.393 744.681 326.116C672.23 330.867 604.261 325.212 543.742 313.828Z" fill="#865BA9"/>
<path fill-rule="evenodd" clip-rule="evenodd" d="M50.8701 410.739C160.828 366.849 241.34 353.619 322.146 375.292C359.403 385.286 396.719 402.696 437.013 427.946C441.569 430.801 446.161 433.754 450.797 436.809C521.801 483.609 592.732 464.796 647.814 427.946C650.896 425.884 653.931 423.764 656.912 421.598C658.887 420.162 660.838 418.705 662.769 417.227L543.743 313.83L504.415 279.667C427.208 221.162 351.635 189.866 282.572 176.06C157.239 151.007 53.3414 183.563 0 215.663L0 432.234C17.666 424.406 34.5915 417.237 50.8701 410.739Z" fill="#49C5D5"/>
<path fill-rule="evenodd" clip-rule="evenodd" d="M1297.75 296.781C1359.56 367.418 1422.48 419.344 1482.7 456.997C1495.06 464.728 1507.31 471.856 1519.41 478.421C1521.14 479.359 1522.87 480.284 1524.59 481.2C1526.77 482.357 1528.94 483.494 1531.11 484.615C1650.66 546.417 1754.54 553.569 1810.02 543.984V768.051C1699.75 767.437 1610.2 751.985 1536.14 727.976C1381.64 677.89 1294.52 590.562 1227.12 523.008L1226.89 522.773C1217.13 512.995 1207.79 503.633 1198.71 494.86C1152.77 450.447 1110.94 415.648 1063.69 407.406C1033.79 402.19 1001.72 407.604 965.065 427.94C944.374 439.416 922.222 455.646 898.173 477.399C882.001 492.027 864.972 509.153 846.953 529.011L844.891 531.274C678.46 713.622 538.877 736.746 365.419 593.899C266.684 512.586 151.83 469.915 70.1903 450.332C42.2422 443.626 18.1829 439.629 0 437.713L0 432.227C17.666 424.4 34.5915 417.231 50.8701 410.732C160.828 366.843 241.34 353.612 322.146 375.285C359.403 385.279 396.719 402.69 437.013 427.94C441.569 430.795 446.162 433.748 450.797 436.803C521.801 483.602 592.732 464.789 647.814 427.94C650.896 425.877 653.931 423.758 656.912 421.592C658.887 420.156 660.838 418.698 662.769 417.221C693.962 393.347 718.925 364.577 734.253 341.179C735.39 339.443 736.548 337.711 737.725 335.98C739.973 332.68 742.291 329.388 744.682 326.111C846.532 186.543 1077.56 72.5745 1276.36 273.759C1283.54 281.018 1290.67 288.687 1297.75 296.781Z" fill="#FFD923"/>
<path fill-rule="evenodd" clip-rule="evenodd" d="M1063.69 407.408C1033.79 402.192 1001.72 407.606 965.064 427.942C944.373 439.418 922.221 455.648 898.172 477.401C882 492.029 864.971 509.155 846.952 529.014L844.891 531.276C880.476 531.408 958.104 563.984 1089.25 692.856C1091.24 694.812 1093.25 696.79 1095.26 698.791L1099.67 703.185C1259.69 863.201 1448.55 792.009 1536.14 727.978C1381.64 677.892 1294.52 590.564 1227.12 523.01L1226.89 522.775C1217.13 512.997 1207.78 503.635 1198.71 494.862C1152.77 450.449 1110.94 415.651 1063.69 407.408Z" fill="#865BA9"/>
<mask id="mask0_1964_703" style="mask-type:alpha" maskUnits="userSpaceOnUse" x="0" y="0" width="283" height="216">
<path d="M0 215.659C53.3419 183.559 157.238 151.002 282.572 176.055C198.691 60.0689 67.3154 11.9355 0 0.804688L0 215.659Z" fill="#865BA9"/>
</mask>
<g mask="url(#mask0_1964_703)">
<g filter="url(#filter0_g_1964_703)">
<path d="M113.472 255.903L113.472 -57.8125L-25.0156 -57.8125L-25.0156 255.903H113.472Z" fill="url(#paint0_linear_1964_703)"/>
</g>
</g>
<mask id="mask1_1964_703" style="mask-type:alpha" maskUnits="userSpaceOnUse" x="0" y="167" width="663" height="298">
<path fill-rule="evenodd" clip-rule="evenodd" d="M50.8701 410.739C160.828 366.849 241.34 353.619 322.146 375.292C359.403 385.286 396.719 402.696 437.013 427.946C441.569 430.801 446.161 433.754 450.797 436.809C521.801 483.609 592.732 464.796 647.814 427.946C650.896 425.884 653.931 423.764 656.912 421.598C658.887 420.162 660.838 418.705 662.769 417.227L543.743 313.83L504.415 279.667C427.208 221.162 351.635 189.866 282.572 176.06C157.239 151.007 53.3414 183.563 0 215.663L0 432.234C17.666 424.406 34.5915 417.237 50.8701 410.739Z" fill="#49C5D5"/>
</mask>
<g mask="url(#mask1_1964_703)">
<g filter="url(#filter1_g_1964_703)">
<path d="M277.783 132.891L-56.5625 132.891L-56.5625 490.296H277.783V132.891Z" fill="url(#paint1_linear_1964_703)"/>
</g>
</g>
<mask id="mask2_1964_703" style="mask-type:alpha" maskUnits="userSpaceOnUse" x="0" y="165" width="1811" height="604">
<path fill-rule="evenodd" clip-rule="evenodd" d="M1297.75 296.781C1359.56 367.418 1422.48 419.344 1482.7 456.997C1495.06 464.728 1507.31 471.856 1519.41 478.421C1521.14 479.359 1522.87 480.284 1524.59 481.2C1526.77 482.357 1528.94 483.494 1531.11 484.615C1650.66 546.417 1754.54 553.569 1810.02 543.984V768.051C1699.75 767.437 1610.2 751.985 1536.14 727.976C1381.64 677.89 1294.52 590.562 1227.12 523.008L1226.89 522.773C1217.13 512.995 1207.79 503.633 1198.71 494.86C1152.77 450.447 1110.94 415.648 1063.69 407.406C1033.79 402.19 1001.72 407.604 965.065 427.94C944.374 439.416 922.222 455.646 898.173 477.399C882.001 492.027 864.972 509.153 846.953 529.011L844.891 531.274C678.46 713.622 538.877 736.746 365.419 593.899C266.684 512.586 151.83 469.915 70.1903 450.332C42.2422 443.626 18.1829 439.629 0 437.713L0 432.227C17.666 424.4 34.5915 417.231 50.8701 410.732C160.828 366.843 241.34 353.612 322.146 375.285C359.403 385.279 396.719 402.69 437.013 427.94C441.569 430.795 446.162 433.748 450.797 436.803C521.801 483.602 592.732 464.789 647.814 427.94C650.896 425.877 653.931 423.758 656.912 421.592C658.887 420.156 660.838 418.698 662.769 417.221C693.962 393.347 718.925 364.577 734.253 341.179C735.39 339.443 736.548 337.711 737.725 335.98C739.973 332.68 742.291 329.388 744.682 326.111C846.532 186.543 1077.56 72.5745 1276.36 273.759C1283.54 281.018 1290.67 288.687 1297.75 296.781Z" fill="#FFD923"/>
</mask>
<g mask="url(#mask2_1964_703)">
<g filter="url(#filter2_g_1964_703)">
<path d="M803.153 138.75L-134.641 138.75L-134.641 703.816L1129.39 703.816L803.153 138.75Z" fill="url(#paint2_linear_1964_703)"/>
</g>
</g>
<mask id="mask3_1964_703" style="mask-type:alpha" maskUnits="userSpaceOnUse" x="0" y="437" width="1094" height="393">
<path fill-rule="evenodd" clip-rule="evenodd" d="M0 437.719L0 665.375C42.479 664.712 134.234 677.919 211.738 737.34C314.192 815.888 467.873 891.021 693.272 751C873.406 639.098 1032.19 665.569 1089.25 692.86C958.104 563.987 880.477 531.411 844.891 531.28C678.46 713.627 538.877 736.751 365.419 593.904C266.684 512.591 151.83 469.921 70.1903 450.337C42.2422 443.632 18.1829 439.635 0 437.719ZM1093.49 697.005C1092.13 695.636 1090.78 694.277 1089.43 692.943C1090.22 693.727 1091.01 694.524 1091.81 695.323L1093.49 697.005Z" fill="#F36275"/>
</mask>
<g mask="url(#mask3_1964_703)">
<g filter="url(#filter3_g_1964_703)">
<path d="M431.999 366.141H-38.5625L-38.5625 840.717H559.161L431.999 366.141Z" fill="url(#paint3_linear_1964_703)"/>
</g>
</g>
<mask id="mask4_1964_703" style="mask-type:alpha" maskUnits="userSpaceOnUse" x="844" y="405" width="693" height="396">
<path fill-rule="evenodd" clip-rule="evenodd" d="M1063.69 407.408C1033.79 402.192 1001.72 407.606 965.064 427.942C944.373 439.418 922.221 455.648 898.172 477.401C882 492.029 864.971 509.155 846.952 529.014L844.891 531.276C880.476 531.408 958.104 563.984 1089.25 692.856C1091.24 694.812 1093.25 696.79 1095.26 698.791L1099.67 703.185C1259.69 863.201 1448.55 792.009 1536.14 727.978C1381.64 677.892 1294.52 590.564 1227.12 523.01L1226.89 522.775C1217.13 512.997 1207.78 503.635 1198.71 494.862C1152.77 450.449 1110.94 415.651 1063.69 407.408Z" fill="#865BA9"/>
</mask>
<g mask="url(#mask4_1964_703)">
<g filter="url(#filter4_g_1964_703)">
<path d="M1152.74 304.969H794.797V880.048H1306.83L1152.74 304.969Z" fill="url(#paint4_linear_1964_703)"/>
</g>
</g>
<mask id="mask5_1964_703" style="mask-type:alpha" maskUnits="userSpaceOnUse" x="1288" y="0" width="523" height="457">
<path d="M1288.12 288.182C1295.3 295.441 1290.67 288.69 1297.75 296.785C1359.56 367.421 1422.49 419.348 1482.7 457.001C1528.17 453.582 1594.45 422.376 1673.42 324.107C1729.1 254.816 1774.74 215.598 1810.02 194.908V0C1709.66 6.01483 1633.8 71.2508 1519.74 201.163C1436.02 296.504 1346.58 307.469 1288.12 288.182Z" fill="#865BA9"/>
</mask>
<g mask="url(#mask5_1964_703)">
<g filter="url(#filter5_g_1964_703)">
<path d="M1457.78 142.797L1157.37 142.797V293.004L1429.02 603.007L1700.67 427.232L1457.78 142.797Z" fill="url(#paint5_linear_1964_703)"/>
</g>
</g>
<mask id="mask6_1964_703" style="mask-type:alpha" maskUnits="userSpaceOnUse" x="1482" y="194" width="329" height="285">
<path d="M1673.42 324.107C1594.45 422.375 1528.17 453.581 1482.7 456.999C1495.07 464.73 1507.31 471.859 1519.42 478.424C1572.02 430.051 1688.22 358.854 1810.02 392.727V194.906C1774.74 215.597 1729.1 254.814 1673.42 324.107Z" fill="#49C5D5"/>
</mask>
<g mask="url(#mask6_1964_703)">
<g filter="url(#filter6_g_1964_703)">
<path d="M1659.92 245.906L1385.07 274.67V514.362L1784.56 463.228L1659.92 245.906Z" fill="url(#paint6_linear_1964_703)"/>
</g>
</g>
<mask id="mask7_1964_703" style="mask-type:alpha" maskUnits="userSpaceOnUse" x="1519" y="383" width="292" height="165">
<path fill-rule="evenodd" clip-rule="evenodd" d="M1524.59 481.198L1521.25 479.414L1519.41 478.42C1572.02 430.046 1688.22 358.85 1810.02 392.723V543.983C1754.54 553.568 1650.66 546.416 1531.11 484.613C1528.94 483.493 1526.77 482.355 1524.59 481.198Z" fill="#865BA9"/>
</mask>
<g mask="url(#mask7_1964_703)">
<g filter="url(#filter7_g_1964_703)">
<path d="M1665.97 324.141H1429.47V598.989H1781.02L1665.97 324.141Z" fill="url(#paint7_linear_1964_703)"/>
</g>
</g>
<defs>
<filter id="filter0_g_1964_703" x="-125.016" y="-157.812" width="338.487" height="513.715" filterUnits="userSpaceOnUse" color-interpolation-filters="sRGB">
<feFlood flood-opacity="0" result="BackgroundImageFix"/>
<feBlend mode="normal" in="SourceGraphic" in2="BackgroundImageFix" result="shape"/>
<feTurbulence type="fractalNoise" baseFrequency="0.14640726149082184 0.14640726149082184" numOctaves="3" seed="4690" />
<feDisplacementMap in="shape" scale="200" xChannelSelector="R" yChannelSelector="G" result="displacedImage" width="100%" height="100%" />
<feMerge result="effect1_texture_1964_703">
<feMergeNode in="displacedImage"/>
</feMerge>
</filter>
<filter id="filter1_g_1964_703" x="-156.562" y="32.8906" width="534.346" height="557.406" filterUnits="userSpaceOnUse" color-interpolation-filters="sRGB">
<feFlood flood-opacity="0" result="BackgroundImageFix"/>
<feBlend mode="normal" in="SourceGraphic" in2="BackgroundImageFix" result="shape"/>
<feTurbulence type="fractalNoise" baseFrequency="0.52288305759429932 0.52288305759429932" numOctaves="3" seed="4690" />
<feDisplacementMap in="shape" scale="200" xChannelSelector="R" yChannelSelector="G" result="displacedImage" width="100%" height="100%" />
<feMerge result="effect1_texture_1964_703">
<feMergeNode in="displacedImage"/>
</feMerge>
</filter>
<filter id="filter2_g_1964_703" x="-234.641" y="38.75" width="1464.03" height="765.066" filterUnits="userSpaceOnUse" color-interpolation-filters="sRGB">
<feFlood flood-opacity="0" result="BackgroundImageFix"/>
<feBlend mode="normal" in="SourceGraphic" in2="BackgroundImageFix" result="shape"/>
<feTurbulence type="fractalNoise" baseFrequency="0.14640726149082184 0.14640726149082184" numOctaves="3" seed="4690" />
<feDisplacementMap in="shape" scale="200" xChannelSelector="R" yChannelSelector="G" result="displacedImage" width="100%" height="100%" />
<feMerge result="effect1_texture_1964_703">
<feMergeNode in="displacedImage"/>
</feMerge>
</filter>
<filter id="filter3_g_1964_703" x="-138.562" y="266.141" width="797.724" height="674.578" filterUnits="userSpaceOnUse" color-interpolation-filters="sRGB">
<feFlood flood-opacity="0" result="BackgroundImageFix"/>
<feBlend mode="normal" in="SourceGraphic" in2="BackgroundImageFix" result="shape"/>
<feTurbulence type="fractalNoise" baseFrequency="0.14640726149082184 0.14640726149082184" numOctaves="3" seed="4690" />
<feDisplacementMap in="shape" scale="200" xChannelSelector="R" yChannelSelector="G" result="displacedImage" width="100%" height="100%" />
<feMerge result="effect1_texture_1964_703">
<feMergeNode in="displacedImage"/>
</feMerge>
</filter>
<filter id="filter4_g_1964_703" x="694.797" y="204.969" width="712.034" height="775.078" filterUnits="userSpaceOnUse" color-interpolation-filters="sRGB">
<feFlood flood-opacity="0" result="BackgroundImageFix"/>
<feBlend mode="normal" in="SourceGraphic" in2="BackgroundImageFix" result="shape"/>
<feTurbulence type="fractalNoise" baseFrequency="0.14640726149082184 0.14640726149082184" numOctaves="3" seed="4690" />
<feDisplacementMap in="shape" scale="200" xChannelSelector="R" yChannelSelector="G" result="displacedImage" width="100%" height="100%" />
<feMerge result="effect1_texture_1964_703">
<feMergeNode in="displacedImage"/>
</feMerge>
</filter>
<filter id="filter5_g_1964_703" x="1057.37" y="42.7969" width="743.304" height="660.211" filterUnits="userSpaceOnUse" color-interpolation-filters="sRGB">
<feFlood flood-opacity="0" result="BackgroundImageFix"/>
<feBlend mode="normal" in="SourceGraphic" in2="BackgroundImageFix" result="shape"/>
<feTurbulence type="fractalNoise" baseFrequency="0.14640726149082184 0.14640726149082184" numOctaves="3" seed="4690" />
<feDisplacementMap in="shape" scale="200" xChannelSelector="R" yChannelSelector="G" result="displacedImage" width="100%" height="100%" />
<feMerge result="effect1_texture_1964_703">
<feMergeNode in="displacedImage"/>
</feMerge>
</filter>
<filter id="filter6_g_1964_703" x="1285.07" y="145.906" width="599.489" height="468.457" filterUnits="userSpaceOnUse" color-interpolation-filters="sRGB">
<feFlood flood-opacity="0" result="BackgroundImageFix"/>
<feBlend mode="normal" in="SourceGraphic" in2="BackgroundImageFix" result="shape"/>
<feTurbulence type="fractalNoise" baseFrequency="0.52288305759429932 0.52288305759429932" numOctaves="3" seed="4690" />
<feDisplacementMap in="shape" scale="200" xChannelSelector="R" yChannelSelector="G" result="displacedImage" width="100%" height="100%" />
<feMerge result="effect1_texture_1964_703">
<feMergeNode in="displacedImage"/>
</feMerge>
</filter>
<filter id="filter7_g_1964_703" x="1329.47" y="224.141" width="551.551" height="474.848" filterUnits="userSpaceOnUse" color-interpolation-filters="sRGB">
<feFlood flood-opacity="0" result="BackgroundImageFix"/>
<feBlend mode="normal" in="SourceGraphic" in2="BackgroundImageFix" result="shape"/>
<feTurbulence type="fractalNoise" baseFrequency="0.14640726149082184 0.14640726149082184" numOctaves="3" seed="4690" />
<feDisplacementMap in="shape" scale="200" xChannelSelector="R" yChannelSelector="G" result="displacedImage" width="100%" height="100%" />
<feMerge result="effect1_texture_1964_703">
<feMergeNode in="displacedImage"/>
</feMerge>
</filter>
<linearGradient id="paint0_linear_1964_703" x1="113.472" y1="99.0451" x2="31.5439" y2="99.0451" gradientUnits="userSpaceOnUse">
<stop stop-color="#865BA9"/>
<stop offset="1" stop-color="#67388D"/>
</linearGradient>
<linearGradient id="paint1_linear_1964_703" x1="277.783" y1="311.593" x2="79.9876" y2="311.593" gradientUnits="userSpaceOnUse">
<stop stop-color="#49C5D5"/>
<stop offset="1" stop-color="#1A97A7"/>
</linearGradient>
<linearGradient id="paint2_linear_1964_703" x1="929.68" y1="295.05" x2="371.469" y2="589.041" gradientUnits="userSpaceOnUse">
<stop stop-color="#FFD923"/>
<stop offset="1" stop-color="#FFBB00"/>
</linearGradient>
<linearGradient id="paint3_linear_1964_703" x1="559.161" y1="603.429" x2="205.553" y2="603.429" gradientUnits="userSpaceOnUse">
<stop stop-color="#F36275"/>
<stop offset="1" stop-color="#DE1A34"/>
</linearGradient>
<linearGradient id="paint4_linear_1964_703" x1="1306.83" y1="592.508" x2="1003.92" y2="592.508" gradientUnits="userSpaceOnUse">
<stop stop-color="#865BA9"/>
<stop offset="1" stop-color="#67388D"/>
</linearGradient>
<linearGradient id="paint5_linear_1964_703" x1="1596.37" y1="254.995" x2="1381.55" y2="428.641" gradientUnits="userSpaceOnUse">
<stop stop-color="#865BA9"/>
<stop offset="1" stop-color="#67388D"/>
</linearGradient>
<linearGradient id="paint6_linear_1964_703" x1="1784.56" y1="380.134" x2="1548.23" y2="380.134" gradientUnits="userSpaceOnUse">
<stop stop-color="#49C5D5"/>
<stop offset="1" stop-color="#1A97A7"/>
</linearGradient>
<linearGradient id="paint7_linear_1964_703" x1="1781.02" y1="461.565" x2="1573.05" y2="461.565" gradientUnits="userSpaceOnUse">
<stop stop-color="#865BA9"/>
<stop offset="1" stop-color="#67388D"/>
</linearGradient>
</defs>
</svg>
